<svg xmlns="http://www.w3.org/2000/svg" viewBox="0 0 107.88 331.67"><defs><style>.cls-1{isolation:isolate;}.cls-2{fill:#76668d;}.cls-3{fill:#c4bdce;}.cls-4{fill:#88a9bf;}.cls-5,.cls-6,.cls-7{fill:#9b90ac;}.cls-5{opacity:0.2;}.cls-12,.cls-32,.cls-5,.cls-7{mix-blend-mode:multiply;}.cls-26,.cls-27,.cls-7{opacity:0.5;}.cls-8{fill:#c2431f;}.cls-9{fill:#e4754c;}.cls-10,.cls-14,.cls-27{fill:#f38855;}.cls-11{fill:#b2a9bf;}.cls-12{fill:#6c1d08;}.cls-12,.cls-32{opacity:0.29;}.cls-13{fill:#ffa765;}.cls-14{opacity:0.8;}.cls-15{fill:#8b3c2c;}.cls-16{fill:#d87258;}.cls-17{fill:#b05658;}.cls-18{fill:#ffead7;}.cls-19{fill:#814a3b;}.cls-20{fill:#3f1b08;}.cls-21,.cls-26{fill:#fff;}.cls-22{fill:#d06b4c;}.cls-23{fill:#e57d58;}.cls-24{fill:#e14a1f;}.cls-25{fill:#cb431f;}.cls-26{mix-blend-mode:soft-light;}.cls-28{fill:#eb5b1f;}.cls-29{fill:#eb6a29;}.cls-30{fill:#792c1d;}.cls-31{fill:#ce6a58;}.cls-32{fill:#901d40;}</style></defs><title>stage5</title><g class="cls-1"><g id="evolution"><path class="cls-2" d="M730.94,347.68c.34.92,10,2.44,10,2.44l13.86-5.37-3.64-6.38-4.86-1.67-10.41,6.71-3.77.58S730.23,345.82,730.94,347.68Z" transform="translate(-730.78 -34.79)"/><path class="cls-3" d="M772.47,359.64v2.43c-6.1,6.1-18.82,4.09-20.41,3.58-1.07-.35-1.78-2.43-7.57-6.26-.21-.14-.42-.28-.64-.41a126.52,126.52,0,0,0-12.21-6.81v-2.62c2.84,0,11.42,2.49,17.61,4.42,3.88,1.2,6.83,2.18,6.83,2.18Z" transform="translate(-730.78 -34.79)"/><path class="cls-4" d="M772.47,359.64c-2,2-17.31,2.75-18.34,1.73h0c-1-1-2.69-2.37-8-6s-14.44-5.78-14.44-5.78l1.1-4.38,3.69-5.72,11.31-3.32s5.75,3.9,6.65,5.62c.32.61,1.23,2.42,2.28,4.49,1.93,3.79,4.3,8.48,4.3,8.48a71.5,71.5,0,0,1,7.54-1.22C770.17,353.5,772.47,359.64,772.47,359.64Z" transform="translate(-730.78 -34.79)"/><path class="cls-5" d="M749.69,354.67c2.4,3.95,4.28,6.48,4.43,6.69-.29-.23-4.93-3.95-6.8-3.95a6,6,0,0,0-3.47,1.57,126.52,126.52,0,0,0-12.21-6.81v-2.62l1.1-4.38,3.69-5.72,11.31-3.32s5.75,3.9,6.65,5.62c.32.61,1.23,2.42,2.28,4.49,0,0-8-1.48-13.17,1.44a29.2,29.2,0,0,1,5.75,6.29C749.4,354.2,749.55,354.43,749.69,354.67Z" transform="translate(-730.78 -34.79)"/><path class="cls-6" d="M781.22,238.8s-3.14,18.51-5.29,28.31c-.72,3.25-1.32,5.54-1.67,5.89-1.4,1.4-2.7,2.54-4.22,4.06s-15.5,41.78-15.5,45.78c0,2.61.51,11,.87,16.5.19,3,.34,5.08.34,5.08s-2.06-2.19-3.41-2.57c-1.08-.31-16,1.95-18.59,2.84a4,4,0,0,0-2.81,3v-2.61s3.83-14.31,5.62-20.06,2.69-24.79,4.22-31.05S751,273,751,273a4.89,4.89,0,0,1-1.4-2.81c0-1.4,3.32-4.21,3.32-4.21,1.4-1.41,10-51.39,10-51.39l15.73-4.07Z" transform="translate(-730.78 -34.79)"/><path class="cls-7" d="M781.22,238.8s-3.14,18.51-5.29,28.31c0,0-11.37-7.32-13-7.32s-7.81,7.32-7.81,7.32-4,1.74-3.05,2.68,8.31,5.24,8.31,5.24l-8.31-.74s-7.79,15.17-7.79,22-2.83,26.83-2.83,26.83l3.33-4.83-5,22.63s12.36-2.27,15.62-1.58c.19,3,.34,5.08.34,5.08s-2.06-2.19-3.41-2.57c-1.08-.31-16,1.95-18.59,2.84a4,4,0,0,0-2.81,3v-2.61s3.83-14.31,5.62-20.06,2.69-24.79,4.22-31.05S751,273,751,273a4.89,4.89,0,0,1-1.4-2.81c0-1.4,3.32-4.21,3.32-4.21,1.4-1.41,10-51.39,10-51.39l15.73-4.07Z" transform="translate(-730.78 -34.79)"/><path class="cls-8" d="M799.65,105.72a29.61,29.61,0,0,0-1.09-12.93c-2.2-6.93-7.8-3.41-7.8-3.41Z" transform="translate(-730.78 -34.79)"/><path class="cls-2" d="M816.47,347.68s-.11-6.76-2.47-6.76-11.76,5.62-11.76,5.62l-5.69,6.14-1.08,2.23-.05,3.59,7-.58Z" transform="translate(-730.78 -34.79)"/><path class="cls-3" d="M838.67,360.87a7.4,7.4,0,0,1-5.46,4.48c-3.89.79-6.69,1.11-18,1.11H795.92l.44-4.64s3.71-1.05,8.48-2a66.8,66.8,0,0,1,11.82-1.35c8.54,0,21.7.89,21.7.89Z" transform="translate(-730.78 -34.79)"/><path class="cls-4" d="M838.36,359.39c-3.41,1.65-9.89,2.44-16,2.62a78.74,78.74,0,0,1-9.06-.19,137.08,137.08,0,0,0-17,0c-1-1,0-8.31,0-8.31,0-3.75,14.57-11.08,14.57-11.08s2.58,2.54,5.64,5a23.76,23.76,0,0,0,6.71,4.06c4.61,1.39,11.72,2.26,12.44,3S838.36,359.39,838.36,359.39Z" transform="translate(-730.78 -34.79)"/><path class="cls-9" d="M802.15,205.28s3,6.22,3,7.8-.75,5.53-.27,7.11a4.5,4.5,0,0,0,2,2.38l2.29-10-1-5.88Z" transform="translate(-730.78 -34.79)"/><path class="cls-10" d="M797.52,177.83s3.91,10.53,4.83,12.58,4.47,7.48,6.67,12.11a27.28,27.28,0,0,1,2.8,9.47c0,1-2.82,11.33-3.66,12.16s-2.26-4.63-2.26-6.3,1.29-4.68,1.29-5.49-3-6-4-6-.38,2.8,0,3.93,2.18,5,1.47,7.8-1.57,3.13-2.1,3.13-2.57-9.15-4.42-11.9-3.07-4.95-3.07-7.48.7-9.15.7-11-1.72-9.42-1.72-9.42Z" transform="translate(-730.78 -34.79)"/><path class="cls-11" d="M816.47,347.68s-1.36-4.82-2.13-4.82-16.53,10.22-17.72,11.41-1.19,4.23-1.19,4.23-2.3-18.71-2.3-20.33-14.31-30.24-14.31-35.26,1.53-21.3,1.53-22.07-2.13-.93-2.13-1.7,1.79-3.92,1.79-3.92S769.1,234.92,764.33,223s-4.5-17.4-4.5-19.6,4.1-21.79,4.1-21.79,11.14-7.34,15.57-5.63,14.14,29.65,14.14,29.65L791.93,211v0c.18.77,6,25.47,6,40.73,0,12.47-.77,20.48-1.07,23.74-.07.79-.12,1.31-.12,1.53,0,1.14-1.79,3.68-1.79,3.68l.56,2c2.53,9.12,12.85,46.16,14.34,48.77,1.25,2.17,4,6.71,5.54,9.16.58.91,1,1.54,1.11,1.66C816.89,342.77,816.47,347.68,816.47,347.68Z" transform="translate(-730.78 -34.79)"/><path class="cls-10" d="M777.5,71.29s-3.62,16-6,22.08l19.66,10.73s3.83-3.52,5-6.5a56.45,56.45,0,0,0,2-8.22l5,0L795,81.9,783.26,70Z" transform="translate(-730.78 -34.79)"/><path class="cls-12" d="M776,73.13S784.88,87,797.62,92l.5-2.58,5,0-21.5-23.29Z" transform="translate(-730.78 -34.79)"/><path class="cls-13" d="M809.6,71.52c-.18.18.82,3.53.27,5.21l-.35.35a4.36,4.36,0,0,1,.74,1.94s-1.43,1.67-1.43,2.14,1.35,4.38,1.35,6.58a14.65,14.65,0,0,1-6.54,1.64l-.47,0h0a6.91,6.91,0,0,1-1.74-.36c-2.64-.85-5.16-3-9.72-4.67-5.8-2.08-5.8-2.23-6.38-3.68-.48-1.17-3.11-12.31-4.64-18.52-.36-1.46-.66-2.65-.85-3.37a7.53,7.53,0,0,1,0-3.27c.82-4.25,4.2-9.87,9.09-11.11a21.47,21.47,0,0,1,2.26-.44,37.17,37.17,0,0,1,11.48.44,55.07,55.07,0,0,0,3.61,7.09,13.1,13.1,0,0,0,2.46,3.06,7,7,0,0,1-1.68,3.91,41.06,41.06,0,0,1,3.37,5.8,30,30,0,0,1,2,5.21C812.5,69.84,809.77,71.35,809.6,71.52Z" transform="translate(-730.78 -34.79)"/><path class="cls-14" d="M790.76,82c2.22,2.21,11.79,7.08,12.38,7.39L801.42,89c-2.64-.85-5.16-3-9.72-4.67-5.8-2.08-5.8-2.23-6.38-3.68-.48-1.17-3.11-12.31-4.64-18.52l-.81-6.64-.2-1.67L781.89,46l7.3-2.31,2,.27,8.71,1.18s-7.68,1.35-7.68,3.42,5,9.53,5,9.53l3.6-1.26s3.22-.19,4.1.69S806,67,806,67a15.61,15.61,0,0,1-6,.94c-4,0-7.66-2.89-7.66-2.89C790.07,67.23,788.48,79.67,790.76,82Z" transform="translate(-730.78 -34.79)"/><path class="cls-15" d="M803.93,42.73l3.16-1.44-3.87,4.26c-2.23-1.72-15.49,1.83-16.49,2.83s-.08,5.48-.08,5.48-3.84,2.43-3.84,5.29,3.49,10.41,3.49,10.41l-1.91.75a10.83,10.83,0,0,0-1.11-2.39c-.88-1.52-7.15-1.85-7.15-1.85a23.9,23.9,0,0,1-.25-3.37c0-1.3-1.35-7.73-2.11-11.51-.22-1.13-.4-2-.47-2.47l0-.3c0-.44,1.54-2.78,4.47-5.28a28.24,28.24,0,0,1,7-4.39,52.93,52.93,0,0,1,13.71-4l-2.4.86a52.81,52.81,0,0,1,12.19,1.18C805.8,38.38,804,42.47,803.93,42.73Z" transform="translate(-730.78 -34.79)"/><path class="cls-16" d="M803.94,61.28s-1.64-1.92-2.63-1.75c-.72.13-2,1.71-2.46,4.18A20.49,20.49,0,0,1,803.94,61.28Z" transform="translate(-730.78 -34.79)"/><path class="cls-17" d="M799.19,64.1a5.74,5.74,0,0,0,4.58,2s.17-.33-.42-2S799.19,64.1,799.19,64.1Z" transform="translate(-730.78 -34.79)"/><path class="cls-18" d="M798.85,63.71a4.88,4.88,0,0,0,4.55,1.87s.65-1.17.23-4.09A11.47,11.47,0,0,0,798.85,63.71Z" transform="translate(-730.78 -34.79)"/><path class="cls-19" d="M801.88,62.22s.54,3.17,1.6,3.17a7.33,7.33,0,0,0,.15-3.9Z" transform="translate(-730.78 -34.79)"/><path class="cls-20" d="M798.85,63.71a31.84,31.84,0,0,1,6.06-2.6,6.31,6.31,0,0,0-3.62.62A5.55,5.55,0,0,0,798.85,63.71Z" transform="translate(-730.78 -34.79)"/><path class="cls-21" d="M802.69,63.57c0,.11-.21.23-.52.26s-.57,0-.59-.13.22-.22.53-.26S802.68,63.46,802.69,63.57Z" transform="translate(-730.78 -34.79)"/><path class="cls-15" d="M795.34,59.81l4.54-4.21v.59a67.15,67.15,0,0,1,8-2.37,4.44,4.44,0,0,1-.7,2.55,10,10,0,0,0,1.26-1.88,7.67,7.67,0,0,1-1.53,3.09,22.4,22.4,0,0,0-5.25.17,8,8,0,0,0-3.23,1l.64-.91A13.31,13.31,0,0,0,795.34,59.81Z" transform="translate(-730.78 -34.79)"/><path class="cls-22" d="M809.52,77.08a1,1,0,0,0,.45-.76,16.17,16.17,0,0,0-2.24.59c-1.69.52-3,1.41-3.7,1.23a9,9,0,0,0,1.86-.18C807.21,77.75,809.52,77.08,809.52,77.08Z" transform="translate(-730.78 -34.79)"/><path class="cls-15" d="M809.67,77.32a14.56,14.56,0,0,0-3.29.68,6,6,0,0,1-2.35.55,4.11,4.11,0,0,1-1.25-.61l.18-.15a2.4,2.4,0,0,0,1.6.33,31.81,31.81,0,0,1,5-1Z" transform="translate(-730.78 -34.79)"/><path class="cls-10" d="M803.51,76.8a3.87,3.87,0,0,0-1.15,1.13c-.33.61-.2.91-.2.91h.62A3.6,3.6,0,0,1,803.51,76.8Z" transform="translate(-730.78 -34.79)"/><path class="cls-23" d="M805.21,70.31s.37,1.94,1.31,2.39a5.84,5.84,0,0,1,3.15-2,7.87,7.87,0,0,0,2.82-1.25,5.62,5.62,0,0,1-2.82,2.88s-2.76.5-3.62.8A5.41,5.41,0,0,1,805.21,70.31Z" transform="translate(-730.78 -34.79)"/><path class="cls-5" d="M822.44,362s-8.87.52-9.81,1.46a8.75,8.75,0,0,0-1.22,3H795.92l.44-4.64c-1-1,0-8.31,0-8.31,0-3.75,14.57-11.08,14.57-11.08s2.58,2.54,5.64,5l-.1.28a40.28,40.28,0,0,0-8.91,6.11c-3.37,3.37-3.24,6-3.24,6l.52.06L822.38,362Z" transform="translate(-730.78 -34.79)"/><path class="cls-6" d="M816.47,347.68s-1.36-4.82-2.13-4.82-16.53,10.22-17.72,11.41-1.19,4.23-1.19,4.23-2.3-18.71-2.3-20.33-14.31-30.24-14.31-35.26,1.53-21.3,1.53-22.07-2.13-.93-2.13-1.7,1.79-3.92,1.79-3.92S769.1,234.92,764.33,223s-4.5-17.4-4.5-19.6,4.1-21.79,4.1-21.79,11.14-7.34,15.57-5.63,14.14,29.65,14.14,29.65L791.93,211s-8.47-7.75-12-6.5-1.88,44.87-.38,53.13,3.57,18.5,3.57,18.5-2.69,1.24-2.69,2.18,6.88,2.56,6.88,2.56l-5.26,1.76s1.88,25.45,4.38,31.95S795.92,335,795.92,335l1.85-10s2.5,16.91,2.5,18.45a18.23,18.23,0,0,0,.92,4.27s10.59-8.17,14.17-7c.58.91,1,1.54,1.11,1.66C816.89,342.77,816.47,347.68,816.47,347.68Z" transform="translate(-730.78 -34.79)"/><path class="cls-8" d="M797.51,216.56S778.15,186.79,774,184.64a38.05,38.05,0,0,0-10.09-3l13.17-5.27,11.14,3.57Z" transform="translate(-730.78 -34.79)"/><path class="cls-23" d="M805.21,70.31l1.52-1.69S805.1,69,805.21,70.31Z" transform="translate(-730.78 -34.79)"/><path class="cls-24" d="M800.5,145s-2.86,39.41-2.86,41.5,1.15,8.5,1.15,9.9-1.28,20.21-1.28,20.21-12-20-16.22-27.2-5.88-8.24-7.54-8.24-13.92.72-13.92.72,6.13-13.84,7-19.15a6.9,6.9,0,0,0,.11-1.09,9.8,9.8,0,0,0-.19-1.54c-.16-.84-.41-1.9-.73-3.14l-.12-.47c-.41-1.6-.92-3.46-1.48-5.49l-.41-1.49-1.8-6.48c-.46-1.72-.93-3.48-1.38-5.23-.63-2.44-1.23-4.85-1.73-7.15a56.85,56.85,0,0,1-1.61-11c0-9.44,9.76-27,14.34-36.95.48-1,.9-2,1.25-2.86,0,0,17,8.22,23.64,14.86a127.37,127.37,0,0,1,8.46,39.84Z" transform="translate(-730.78 -34.79)"/><path class="cls-25" d="M805.2,134.51s-9.51.28-12.93-.89a33.26,33.26,0,0,1-7.5-4.25s3.67,5.17,7.25,7.5,9.14,6.61,9.14,6.61Z" transform="translate(-730.78 -34.79)"/><path class="cls-26" d="M802.75,115.24s-3.71,0-16.15-1.87a102.49,102.49,0,0,1-25.48-7.65l-1.76,4.76s28.52,9.22,44.21,9.22Z" transform="translate(-730.78 -34.79)"/><path class="cls-26" d="M805.05,132s-33.26,0-46.31-3.16l.69,3.16s31.23,5.77,44.91,4.46l.86-1.91Z" transform="translate(-730.78 -34.79)"/><path class="cls-25" d="M774,184.64s4.16-18.46,4.16-20.07l9.13,1.89-12.2-9.64,2-22.21,1.71-4.71-12.6,7.64-3.3,21.33,4.42,23.43Z" transform="translate(-730.78 -34.79)"/><path class="cls-26" d="M798.31,175.7s-17.75,1.67-35.4-3.54v4.18s23.68,5.71,35,5Z" transform="translate(-730.78 -34.79)"/><path class="cls-26" d="M799.74,155.46s-22.83.64-38.9-3.93l2.07,3.93s28,3.41,36.28,3.41Z" transform="translate(-730.78 -34.79)"/><path class="cls-13" d="M776.56,223.94c-1.85.64-6.58-2.26-6.58-5.88a14.32,14.32,0,0,0-2.49-7.54,53.43,53.43,0,0,0-.45,7.16,36,36,0,0,0,1.4,8.81c1.79,3.84,2.56,6.9,1.54,6.9s-3.77-2.94-3.77-2.94l-1.66-.7a11.57,11.57,0,0,1-3.13-2.17,5.8,5.8,0,0,1-2.43-1.21c-.77-.78-3.62-4.91-4.18-7.41h0a3.12,3.12,0,0,1-.1-.76c0-2.3,3.38-20.64,3.38-22.56s-5.55-12.77-8.19-21.4c-2.12-7-.82-15.71-.24-18.82.14-.74.24-1.16.24-1.16l17.15-9.3a87.06,87.06,0,0,0,.19,10.15c.16,2.33.44,4.93.87,7.64.12.77.22,1.61.28,2.51.79,10.41-1.8,28.83-1.8,30.77a2.49,2.49,0,0,0,.3,1l.09.18c1.33,2.52,5.64,6.55,6.26,7.17s.57,4.53,1.15,9.13S778.41,223.3,776.56,223.94Z" transform="translate(-730.78 -34.79)"/><path class="cls-27" d="M767,197.22l.36.77s-1.23.3-3,4.47-1.44,19.23-1.44,20.12-2.08-1.29-3.09-1.29a3.5,3.5,0,0,1-2.31-1.08,6.78,6.78,0,0,0-1.44-.92s-1,.11-1.27-.33h0a3.12,3.12,0,0,1-.1-.76c0-2.3,3.38-20.64,3.38-22.56s-5.55-12.77-8.19-21.4c-2.12-7-.82-15.71-.24-18.82l1.4-1.74H765.2l2,1.43c.16,2.33.44,4.93.87,7.64.12.77.22,1.61.28,2.51,0,0-11.2-1.5-15.33,1.29,0,0,5.28,25.76,6.77,28.63s7.06,1.87,7.06,1.87Z" transform="translate(-730.78 -34.79)"/><path class="cls-28" d="M784.77,108.81c0,8.94-1.63,15.31-2.46,17.08s-9.19,14.32-10.86,20.2-2.81,10.79-2.81,10.79-.8,0-2.08,0h-.51c-4.56,0-13.77-.3-16.15-2.67,0,0,2.85-5.39,5.49-11.93,1-2.52,2-5.2,2.77-7.81.4-1.33.72-2.64,1-3.9a44.28,44.28,0,0,0,.7-13.5s4.54-23.35,14.33-26.06c1.1-.31,2.86.85,4.64,2.9C781.77,97.35,784.77,103.22,784.77,108.81Z" transform="translate(-730.78 -34.79)"/><path class="cls-29" d="M773.41,147.84s-1.89,4.26-1.89,7.59a5.85,5.85,0,0,1-2.11,4.17,8.89,8.89,0,0,1-1.59,1.17,10.19,10.19,0,0,0-1-.71c-2.12-1.28-7.58-3.83-17.26-3.83a4,4,0,0,1-1.24-2.66c0-1.53,4.52-5.69,5.62-11.28,0,0,.56,0,1.49,0s1.91.09,3.17.21,2.38.25,3.68.46c3.24.54,6.76,1.47,9.21,3.1A8.31,8.31,0,0,1,773.41,147.84Z" transform="translate(-730.78 -34.79)"/><path class="cls-26" d="M791.22,43.94l-5.16,3.41-4.92,4.38-7.37-.54c-.22-1.13-.4-2-.47-2.47l0-.3c0-.44,1.54-2.78,4.47-5.28a22.27,22.27,0,0,0,5.08,1.34A21.54,21.54,0,0,0,791.22,43.94Z" transform="translate(-730.78 -34.79)"/><path class="cls-30" d="M803.93,42.73l3.16-1.44-3.87,4.26c-2.23-1.72-15.49,1.83-16.49,2.83s-.08,5.48-.08,5.48-3.84,2.43-3.84,5.29,3.49,10.41,3.49,10.41l-1.91.75a10.83,10.83,0,0,0-1.11-2.39c-.88-1.52-7.15-1.85-7.15-1.85a23.9,23.9,0,0,1-.25-3.37c0-1.68-2.27-12-2.58-14l0-.3L782.81,46v3.58c3-5.08,12.53-10.58,12.53-10.58L791.77,43a42.78,42.78,0,0,1,16.5-6.13A50,50,0,0,0,803.93,42.73Z" transform="translate(-730.78 -34.79)"/><path class="cls-23" d="M783.49,67.16s-2.44-4.68-4.87-5.27-4.47,2.39-4.47,4.23,1,6.75,3.33,9,4.64,2.65,5.72,1.57a6.55,6.55,0,0,0,1.57-4.27A31.81,31.81,0,0,0,783.49,67.16Z" transform="translate(-730.78 -34.79)"/><path class="cls-31" d="M782.81,70.58A12.05,12.05,0,0,0,779,66.16c-2.62-1.78-4.35-.39-4.35-.39s1.1-.32,3.76,1.64S782.81,70.58,782.81,70.58Z" transform="translate(-730.78 -34.79)"/><path class="cls-31" d="M781.44,69.09s1.52,4-1.06,5.64c0,0,1.49-1.25,0-6.11Z" transform="translate(-730.78 -34.79)"/><path class="cls-10" d="M775.88,63.77s3.2.34,6,4.15l.92-1.21s-2.67-4-4.43-4.51S775.88,63.77,775.88,63.77Z" transform="translate(-730.78 -34.79)"/><path class="cls-26" d="M812.5,69.45c-.59.58-1.87,0-1.87,0a42.44,42.44,0,0,0-4.4-11h.86a41.06,41.06,0,0,1,3.37,5.8A30,30,0,0,1,812.5,69.45Z" transform="translate(-730.78 -34.79)"/><path class="cls-18" d="M810.3,70.26c.05.15-.35.43-.89.61s-1,.2-1.09,0,.35-.43.89-.62S810.25,70.1,810.3,70.26Z" transform="translate(-730.78 -34.79)"/><path class="cls-15" d="M807.5,72.62a3.47,3.47,0,0,1,1.35-.82,1.44,1.44,0,0,1,1.35.14l-.84,0A2.21,2.21,0,0,1,807.5,72.62Z" transform="translate(-730.78 -34.79)"/><path class="cls-10" d="M810.26,79a10.44,10.44,0,0,0-2.36,1.39l1.26,2.11a5.84,5.84,0,0,1-.33-1.36C808.83,80.71,810.26,79,810.26,79Z" transform="translate(-730.78 -34.79)"/><polygon class="cls-10" points="35.42 195.66 32.13 191.63 34.21 195.15 35.42 195.66"/><path class="cls-10" d="M761.42,227.58l-2.11-2.79a11.75,11.75,0,0,0,1.37,2.56C761,227.46,761.42,227.58,761.42,227.58Z" transform="translate(-730.78 -34.79)"/><path class="cls-6" d="M796.71,277.06l-4.86,3,3.22,1.26A26.64,26.64,0,0,0,796.71,277.06Z" transform="translate(-730.78 -34.79)"/><path class="cls-28" d="M775.11,156.82s11.15,8.59,12.2,9.64S795,179,795,179s-6.41-14.95-6.74-15.82C787.31,160.77,775.11,156.82,775.11,156.82Z" transform="translate(-730.78 -34.79)"/><path class="cls-26" d="M786.06,94.37s4.88,11.79,6,21.92a80.57,80.57,0,0,1,.21,17.33l-1.62,2.23-5.6,19.61-.28,5.31-2.8,1.47v3.12l-2.67,25,3.59,4.8,1.88-29.24v-1.58l2.54-2.19,5.51-25.54,3.7-2.5S794,110,790.76,101.37,786.06,94.37,786.06,94.37Z" transform="translate(-730.78 -34.79)"/><path class="cls-32" d="M792.82,103.44s-8.38-6.93-14-9.49h0a31.21,31.21,0,0,0-12.28,15.17,59.25,59.25,0,0,0-3.6,22.84c0,1-1,3.48-2.06,5.8-1.13,2.49-2.3,4.77-2.3,4.77h-2.62s-.42,4.76,0,5.18c.28.27,4.52.73,8.1,1.76a10.75,10.75,0,0,1,4.35,2.06s-1.72-.27-3.94-.57a73.15,73.15,0,0,0-7.93-.75s5.57,3.4,9.41,6.24c.22.16.43.31.63.47a11.93,11.93,0,0,1,2.85,2.67h0a8.89,8.89,0,0,1-1.59,1.17,10.19,10.19,0,0,0-1-.71c-2.12-1.28-7.58-3.83-17.26-3.83a4,4,0,0,1-1.24-2.66c0-1.53,4.52-5.69,5.62-11.28,0,0,.56,0,1.49,0,1-2.52,2-5.2,2.77-7.81.4-1.33.72-2.64,1-3.9a56.85,56.85,0,0,1-1.61-11c0-9.44,9.76-27,14.34-36.95l16.08,5.82Z" transform="translate(-730.78 -34.79)"/><path class="cls-28" d="M798.56,101.26s-1.56-5.5-2.48-5.92c-1.14-.53-2.61,8.76-2.61,8.76s-10.35-10.57-15.59-14.72A55.63,55.63,0,0,0,770,83.89l3.24-5.43s16,10.28,23.39,15.27Z" transform="translate(-730.78 -34.79)"/><path class="cls-26" d="M773.26,78.46s1.43,1.62,9,7,12.83,9,12.83,9l1.59-.64Z" transform="translate(-730.78 -34.79)"/><path class="cls-26" d="M774.16,91.05s-6.72,9-9.89,16-2.17,20.38-2.75,22.29-4.58,13.16-4.58,13.16l-1.55-.21a67.72,67.72,0,0,1-1.79,7.55,9.79,9.79,0,0,1-2.54,3.8v2.58h3.88v-2.88c0-.5,3.62-10.84,3.62-10.84l1.54.16s4.82-12.17,4.82-12.79-.4-17.44,2-22.11S776.71,92,776.71,92l1.17-2.58L776,88Z" transform="translate(-730.78 -34.79)"/><path class="cls-26" d="M782.31,99.3a75.52,75.52,0,0,1-4.43,17.32c-3.78,10.25-6,14.75-7.86,17.59a97.76,97.76,0,0,0-4.75,9.4l2.06.58s-.28,5.13-1.16,6-3.16,8-3.16,8l2.09,1a17.74,17.74,0,0,0,2.7-3.13c.8-1.38,1.81-7.24,2.43-7.86s.32-2.63.32-2.63l-.9-.39a39.16,39.16,0,0,1,6-15.26c5.16-7.86,8.79-20.25,8.79-24.18l1.57-9-2.36-2.24Z" transform="translate(-730.78 -34.79)"/><path class="cls-26" d="M783.91,119.7A66.65,66.65,0,0,1,770,117.23c-6.65-2.07-8.65-6.38-8.65-6.38L760,114.23s2.5,3.75,9.37,6.62A43.34,43.34,0,0,0,783,124Z" transform="translate(-730.78 -34.79)"/><path class="cls-26" d="M758.74,132.35s9,6.82,15.79,6.82L773,142.29s-12.27-3.72-15.43-5.67Z" transform="translate(-730.78 -34.79)"/><polygon class="cls-26" points="67.85 164.56 56.52 164.73 57.97 168.7 67.53 168.7 67.85 164.56"/><path class="cls-26" d="M797.9,251.79c0,12.47-.77,20.48-1.07,23.74-1.5.48-.58-9.24-1.89-16.68-.84-4.73-10.76-47.77-10.76-47.77,4.54-4.54,7.75,0,7.75,0v0C792.12,211.83,797.9,236.53,797.9,251.79Z" transform="translate(-730.78 -34.79)"/><path class="cls-26" d="M811.55,337.89c-.6-.83-19.53-27.3-21.73-32.48s0-20.74,0-20.74l5.66-1.91c2.53,9.12,12.85,46.16,14.34,48.77l-5.5-8Z" transform="translate(-730.78 -34.79)"/></g></g></svg>