<svg xmlns="http://www.w3.org/2000/svg" viewBox="0 0 147.06 197.56"><defs><style>.cls-1{isolation:isolate;}.cls-2{fill:#f38855;}.cls-3{fill:#fa9f57;}.cls-4{fill:#e57d58;}.cls-5{fill:#792c1d;}.cls-18,.cls-6{fill:#6c1d08;mix-blend-mode:multiply;}.cls-6{opacity:0.29;}.cls-7{fill:#ffa765;}.cls-8{fill:#3f1b08;}.cls-9{fill:#ffead7;}.cls-10{fill:#d87258;}.cls-11{fill:#b05658;}.cls-12{fill:#814a3b;}.cls-13{fill:#fff;}.cls-14{fill:#8b3c2c;}.cls-15{fill:#b45a47;}.cls-16{fill:#ce6a58;}.cls-17{fill:#84301f;}.cls-18{opacity:0.15;}.cls-19{fill:#ffb176;}</style></defs><title>stage1</title><g class="cls-1"><g id="evolution"><polygon class="cls-2" points="34.56 195.62 32.01 195.42 29.85 191.31 32.2 191.31 34.56 195.62"/><path class="cls-3" d="M85.37,364.88c-.56.56-3,1.48-3.54,1s-2.55-3.49-2.55-3.49v3.29s-.36.39-.77.79a3.45,3.45,0,0,1-2,.43,5.19,5.19,0,0,0-2.52.46c-.4.4-1.22.06-2,.2a6.06,6.06,0,0,1-3.41,0A20.26,20.26,0,0,1,65,365.88h0a30.06,30.06,0,0,1-6.16-4.54c-3.15-3.14-8-4.77-8-5.42a27.91,27.91,0,0,1,.6-3.18s6.69-8,7.94-8,5.71,5.3,5.71,5.3l.7.65h0c1.82,1.7,6.7,6.14,8.62,6.88,2.39.93,8.13,1.41,8.54,1.82S85.94,364.32,85.37,364.88Z" transform="translate(-47.27 -170.25)"/><path class="cls-2" d="M59.71,359.75c1.11,1.19,4.56,5.43,5.23,6.12a30.06,30.06,0,0,1-6.16-4.54c-3.15-3.14-8-4.77-8-5.42a27.91,27.91,0,0,1,.6-3.18s6.69-8,7.94-8,5.71,5.3,5.71,5.3l.7.65A46.54,46.54,0,0,0,60,349c-.92,0-4.49,3.36-4.49,4.79S58.38,358.32,59.71,359.75Z" transform="translate(-47.27 -170.25)"/><path class="cls-4" d="M105,351.49v3s16,.4,21.46,0,13.84-.46,14.24-.86-1-4.17-1.59-4.77-12.25-1.64-17.35-1.64-9.34-1.07-10-1.54a4.33,4.33,0,0,0-2.92-1.12C107.26,344.54,105,351.49,105,351.49Z" transform="translate(-47.27 -170.25)"/><path class="cls-5" d="M116,309.63a2.78,2.78,0,0,1-1.85-2.78s.34,24.65-4.21,35l1.83,3.84a2.39,2.39,0,0,0-2.53-.53c-1.59.53-3.71,6.36-4.23,6.36s.07-4.3.07-4.3l-1.25.06a21.87,21.87,0,0,0,1.4-4.94c0-1.41-7.51-27.91-9.36-32.15S82.09,289.5,82.09,289.5l3.6-17.1.94-4.5,10.71-2,6.49-1.19,1.19,3.33C108.23,277.29,116.87,302.94,116,309.63Z" transform="translate(-47.27 -170.25)"/><path class="cls-6" d="M111.77,345.66a2.39,2.39,0,0,0-2.53-.53c-1.59.53-3.71,6.36-4.23,6.36s.07-4.3.07-4.3l-1.25.06a21.87,21.87,0,0,0,1.4-4.94c0-1.41-7.51-27.91-9.36-32.15S82.09,289.5,82.09,289.5l3.6-17.1,3.22-1.76,8.43-4.72,6.49-1.19,1.19,3.33h0s-4.19,24.62-7.9,32.86c0,0,2.34,9.41,4,16.39s5.67,21.46,6.82,22.6,2.06,1.9,2.06,1.9Z" transform="translate(-47.27 -170.25)"/><path class="cls-7" d="M194.34,199.38a33.2,33.2,0,0,1-6.76,13.19h0a32.55,32.55,0,0,1-11.69,8.89c-.36.17-.72.33-1.09.48a33.28,33.28,0,0,0-3.93-2.13,49.71,49.71,0,0,0-5.92-2.34h0c-.56-.18-1.16-.36-1.76-.52a39.55,39.55,0,0,0-16.48-1.16l2.25-1.79a23.48,23.48,0,0,0-6.83,1,24.73,24.73,0,0,1,2.48-5.9l0,0h0a31.36,31.36,0,0,1,13.85-12.8c.43-.24.89-.44,1.34-.64,0,0-3.69-6.39-.51-12.93a21.93,21.93,0,0,1,3.82,0,47.54,47.54,0,0,0,8,.41c4.87-.44,11.15-.41,11.15-.41a31.82,31.82,0,0,0,0,3.25c.13,2.67.63,5.78,2.14,7.63l7.52,5.82Z" transform="translate(-47.27 -170.25)"/><path class="cls-2" d="M187.56,212.58a32.55,32.55,0,0,1-11.69,8.89s-2.12-.65-5-1.65c-2.31-.79-5.1-1.8-7.7-2.87a31.45,31.45,0,0,1-7.23-3.81c-4.15-3.51-3.6-10-3.6-10l6.14-6.88c.43-.24.89-.44,1.34-.64,0,0-3.69-6.39-.51-12.93a21.93,21.93,0,0,1,3.82,0,47.54,47.54,0,0,0,8,.41c4.87-.44,11.15-.41,11.15-.41l0,1.65s-11,5.07-18.06,2.35c0,0-1.78,6.17,2.75,10.7,0,0-2.79,8.8,4.2,14.7C177.93,217.81,187.07,212.85,187.56,212.58Z" transform="translate(-47.27 -170.25)"/><path class="cls-2" d="M138.34,332.66s-4,3.44-5.06,4.53-3.61,14.95-3.61,17.46c0,1.06,3.29-.24,4.7-2.63s1-8.71,1.79-9.45,1.22,5.13.91,6.63-2,3.33-2.5,3.33-3.2-.55-3.95.33,5.62,3.43,6.46,3.43,2.15-1,3-1,2.67.24,3.14-.23a3.1,3.1,0,0,1,1.9-1c.66,0,1.1-21.83,1.1-21.83l-4.33-3.2Z" transform="translate(-47.27 -170.25)"/><path class="cls-5" d="M157.31,227.07s-1,7.7-2.39,18.81h0c-3.38,26.42-9.29,72.18-10.65,80.25l1.23,6s-3.93-1.1-4.51-1.67c0,0-1.67,2.38-3.71,2.38,0,0,1.59-10.24,1.59-14s-2.71-40.95-2.71-46.49.9-23.89.9-23.89l14.21-15Z" transform="translate(-47.27 -170.25)"/><path class="cls-6" d="M157.31,227.07s-1,7.7-2.39,18.81h0l-14.67,24-2.19-17.35,13.21-19.11Z" transform="translate(-47.27 -170.25)"/><path class="cls-4" d="M171.11,219.94a10.56,10.56,0,0,0-3.35,0,16.19,16.19,0,0,0-6.85,2.81c-2.21,1.54-5.37,7-8.61,12.94-4.34,7.89-8.83,16.58-11.49,17.79-4.67,2.12-23.87,5.69-33.69,9.68-5.41,2.19-8.32,8-12.22,11.52A17.91,17.91,0,0,1,87,278.29s-.75-7.32-.67-14.8a60,60,0,0,1,.67-9.35c1.54-9,37.71-28,37.71-28l23.51-15.76,8.64,1.2.41.06,1.86,1.68,4,3.59,1.42.53Z" transform="translate(-47.27 -170.25)"/><path class="cls-8" d="M181,198.12c.45.46,3.22-.51,3.49-.77s-.29-.17-.29-.17a3.76,3.76,0,0,1,3.25.09s-1.45-2-3.24-1.66S181,198.12,181,198.12Z" transform="translate(-47.27 -170.25)"/><path class="cls-2" d="M170.38,197.06a7,7,0,0,0,7-2.16c.94-1.34.07-7.94-.61-8.62s-11.58-1.21-12.79,0S163.22,194.88,170.38,197.06Z" transform="translate(-47.27 -170.25)"/><path class="cls-9" d="M174.89,190.9s-1.56-.16-2.25-.16-5.52,2.32-5.52,2.32,2.73,2.92,4.74,2.92a3.84,3.84,0,0,0,3-1.46,24.83,24.83,0,0,0,.93-3.09C175.82,191,174.89,190.9,174.89,190.9Z" transform="translate(-47.27 -170.25)"/><path class="cls-10" d="M175.87,190.32s-3.77-2.69-4.46-2.51c-1.9.5-4.47,4.57-4.47,5.41A13,13,0,0,1,175.87,190.32Z" transform="translate(-47.27 -170.25)"/><path class="cls-11" d="M168.29,194.1s2.34,1.55,3.84,1.55a5.16,5.16,0,0,0,2.76-1.13s-1.35,1.86-3,1.86C170.58,196.38,168.29,194.1,168.29,194.1Z" transform="translate(-47.27 -170.25)"/><path class="cls-12" d="M171.41,191.13s.45,4.07,1.87,4.11c2.25.07,2.59-3.28,2.59-4.43C175.87,190.81,173.33,189.63,171.41,191.13Z" transform="translate(-47.27 -170.25)"/><path class="cls-8" d="M166.94,193.22s5.56-2.74,9.85-2.38a5.38,5.38,0,0,0-2.85-.9C170.43,190.25,166.94,193.22,166.94,193.22Z" transform="translate(-47.27 -170.25)"/><path class="cls-11" d="M166.94,193.22a20.36,20.36,0,0,1,3-4.48A6.39,6.39,0,0,0,166.94,193.22Z" transform="translate(-47.27 -170.25)"/><ellipse class="cls-13" cx="124.31" cy="23.11" rx="0.68" ry="0.3"/><path class="cls-14" d="M188.69,196.8l-1.24.47a3.78,3.78,0,0,0-3.26-.89,9.88,9.88,0,0,0-3.24,2c-2.95.44-2.6-1.32-2.6-1.32l0,0c2.22-2.18,8.62-4.83,9.2-4.25S188.69,196.8,188.69,196.8Z" transform="translate(-47.27 -170.25)"/><path class="cls-15" d="M187.58,192.81s-.33,1.28-3.49,1.78a14.4,14.4,0,0,0-5.71,2.47C180.6,194.88,187,192.23,187.58,192.81Z" transform="translate(-47.27 -170.25)"/><path class="cls-2" d="M139.19,352.33s-3,0-3,1.68,1.51,5.36,1.51,5.36l2.58-1.39Z" transform="translate(-47.27 -170.25)"/><path class="cls-15" d="M191.19,198.79A54.21,54.21,0,0,0,181,203.12s8.57-3.3,13.29-3.74H192Z" transform="translate(-47.27 -170.25)"/><path class="cls-5" d="M167.76,219.93a16.19,16.19,0,0,0-6.85,2.81,11.14,11.14,0,0,0-2.09,2.19h0a93.38,93.38,0,0,0-6.51,10.74c-4.85-7.56-14.21-9.53-21.4-2.34s-32.2,22-36.8,26.57c-2,2-3.62,5.82-4.78,9.44A75.87,75.87,0,0,0,87,278.29a20.06,20.06,0,0,1-10.65.66c-12.55-2.88-17.21-18.86-17.21-18.86,7.95-10.47,26.75-17.48,39.87-25.3s38-28.06,38-28.06l8.73-3.6,11.11,8.49,2.27,1.74,5.4,4.12,2.77,2.13Z" transform="translate(-47.27 -170.25)"/><path class="cls-6" d="M167.76,219.93a16.19,16.19,0,0,0-6.85,2.81,11.14,11.14,0,0,0-2.09,2.19h0s-9.7-9.95-16.72-9.95c0,0,6.2-2.4,11.13-2.4,4.31,0,12.21,5.63,14.12,7Z" transform="translate(-47.27 -170.25)"/><path class="cls-6" d="M94.9,274.67A17.91,17.91,0,0,1,87,278.29a20.06,20.06,0,0,1-10.65.66V266.58l8-9.7a38.45,38.45,0,0,0,1.93,6.61,29.81,29.81,0,0,0,2.95,5.86A15.61,15.61,0,0,0,94.9,274.67Z" transform="translate(-47.27 -170.25)"/><path class="cls-6" d="M129.49,222s-14.75,31.27-16,34.57c-.57,1.48-1.57,4.93-1.57,4.93l16.83-4.72Z" transform="translate(-47.27 -170.25)"/><path class="cls-14" d="M182.29,182.68c-7,1.39-11.51,1.84-15.95,1.38A33,33,0,0,1,161,183a13.32,13.32,0,0,0,4.11,14.05S158,198.81,158,205.7c0,8.83,6.59,11.48,6.92,11.77a40.28,40.28,0,0,0-18.24-1.68l2.25-1.79a23.48,23.48,0,0,0-6.83,1,24.73,24.73,0,0,1,2.48-5.9l0,0h0c-1-4.14-5.38-5.92-5.38-5.92-2.31-9.56-2.78-21.64-1.36-26.91a4.13,4.13,0,0,1,1.36-2.49c2.92-1.77,16.15-5.07,27.05-1.62a34.92,34.92,0,0,1,14.9,9.24C181.92,182.18,182.29,182.68,182.29,182.68Z" transform="translate(-47.27 -170.25)"/><path class="cls-6" d="M156.62,194.9s-9.87,9.44-12,14.15c-1-4.14-5.38-5.92-5.38-5.92-2.31-9.56-2.78-21.64-1.36-26.91A46.54,46.54,0,0,0,156.62,194.9Z" transform="translate(-47.27 -170.25)"/><path class="cls-4" d="M152.32,199.45s-4.13-10.36-10-12.34-11.39,3.24-11.39,9.31c0,5.18,5.58,12.33,11.18,11.61,3.94-.5,4.9-3.37,7.27-5.75C150.92,200.73,152.32,199.45,152.32,199.45Z" transform="translate(-47.27 -170.25)"/><path class="cls-16" d="M148.26,200.36s-2.78-5.86-6.29-7.7-8,1.35-8,1.35a21.07,21.07,0,0,1,7.46,1.71A24.71,24.71,0,0,1,148.26,200.36Z" transform="translate(-47.27 -170.25)"/><path class="cls-16" d="M139.37,203.15a6.64,6.64,0,0,0,4.32-1.14,6.35,6.35,0,0,0,2.1-4.58l-1.53-1.71a6.72,6.72,0,0,1-.94,5.27A5.6,5.6,0,0,1,139.37,203.15Z" transform="translate(-47.27 -170.25)"/><path class="cls-7" d="M144.43,333.82s-2.37,6.1-3.79,10.61-1.85,12.45-1.85,12.45l-.73,1.12s-.4-4.65-1.9-4.65-.69,9.55,0,10.24,3.62-.77,4.35-.77,2.46.59,3.64.59,3.79-.72,5.32-.72a5.31,5.31,0,0,0,4-2.13c.35-.61-2.12-21.78-2.71-23.44-.39-1.06-2.72-6.49-2.72-6.49Z" transform="translate(-47.27 -170.25)"/><path class="cls-14" d="M153.22,332l-4.77-.47c.1,4.7-4.79,6.83-4,.66,0,0-2.26,2.65-3.32,2.65l2.79-4.24v0c-.51-1-16.85-32.14-19.12-40.23l-.16.35-.27.55a.36.36,0,0,0-.05.09c-.65,1.31-1.13,1.88-1.43,1.83s-.27-.21-.33-.57a15.59,15.59,0,0,1,.22-4.05c0-.21,0-.38.07-.48V288c-.11.33-1,2.94-1.78,3.59l0,0c-.09.07-.14.05-.16,0-.34-1.32,6.64-19.19,6.64-37.48,0-5-2.27-14.3-4.13-21.58-.51-2-.37-1.43-.76-3h0c1-7.86,11.6-19.14,13.52-19.14,6.42,0,3.62,19.05,3.93,39.18a315.26,315.26,0,0,0,2.93,35c.1.83.21,1.71.32,2.62,0,.32.09.64.13.95.08.63.16,1.27.25,1.92.05.43.1.86.15,1.31.28,2.11.57,4.35.86,6.65.07.45.12.89.18,1.34l.15,1.18c.08.54.14,1.09.21,1.65.2,1.56.42,3.14.62,4.7.07.64.16,1.26.24,1.88,0,.37.1.73.14,1.08.11.82.22,1.65.32,2.46.19,1.38.36,2.73.53,4,0,.38.09.75.15,1.11.37,2.88.71,5.46,1,7.56,0,.34.09.66.13,1a.45.45,0,0,1,0,.11c0,.3.07.58.12.85.13,1.07.25,1.94.32,2.55s.13.88.14,1Z" transform="translate(-47.27 -170.25)"/><path class="cls-14" d="M81,315.73c.62,8.67-1.29,5.37-2,3.3A125.37,125.37,0,0,1,69.22,333C64.39,339.13,61,344.5,61,344.87c0,.64,6.15,5.83,6.39,6.15a64.58,64.58,0,0,0-7.84-2c-.93,0-8.15,5.92-8.15,5.92l-.27-1.72L47.27,356a61.69,61.69,0,0,0,6.7-9.73c.33-.66.61-1.31.84-1.91,1.72-4.77,7.56-34.12,7.6-35.44a98.51,98.51,0,0,0-1.77-23.5c-2.39-11.79-1.46-25.31-1.46-25.31,3.39-6.17,24.95-15.73,26.69-14a142.22,142.22,0,0,0-2,25.76c0,.94.08,1.88.14,2.82C85.45,284.86,88.17,300.64,81,315.73Z" transform="translate(-47.27 -170.25)"/><path class="cls-17" d="M156.63,194.9S145.31,206.81,142.09,215c0,0,1.71-5.79,2.43-7.72S151.8,197.71,156.63,194.9Z" transform="translate(-47.27 -170.25)"/><path class="cls-14" d="M155.92,215.58s11.2,2.66,17,8.29l-.07-2.22a23.72,23.72,0,0,1,4.57,5.42l-1.53-5.6S164,215.58,155.92,215.58Z" transform="translate(-47.27 -170.25)"/><path class="cls-9" d="M183.9,194.64c0,.16-.33.4-.84.55s-1,.13-1,0,.33-.41.84-.55S183.85,194.48,183.9,194.64Z" transform="translate(-47.27 -170.25)"/><path class="cls-2" d="M138.3,187.15s-.11,2.62,1.72,3.59c2.56,1.35,4.95,2.79,7.73,7.5a2.93,2.93,0,0,0,2.52-2C150.62,194.9,144.44,186.18,138.3,187.15Z" transform="translate(-47.27 -170.25)"/><path class="cls-15" d="M139.23,173.73s4,2.55,19,6.45,24.07,2.5,24.07,2.5a25.53,25.53,0,0,0-5.84-5.47C169,172.12,155.09,166.43,139.23,173.73Z" transform="translate(-47.27 -170.25)"/><path class="cls-14" d="M177.26,183.58s5,.46,7.62-.41l-1.9-.55s3.43-1.8,2.88-2.36-4.28,1.56-4.28,1.56S181.05,182.93,177.26,183.58Z" transform="translate(-47.27 -170.25)"/><path class="cls-18" d="M68.14,297.71c-3.88,9.19-2.65,28.88-2.65,31.31,0,1.37,2,2.89,3.73,3.93C64.39,339.13,61,344.5,61,344.87L54,346.25c.33-.66.61-1.31.84-1.91,1.72-4.77,7.56-34.12,7.6-35.44a98.51,98.51,0,0,0-1.77-23.5c-2.39-11.79-1.46-25.31-1.46-25.31,3.39-6.17,24.95-15.73,26.69-14a142.22,142.22,0,0,0-2,25.76C78.85,279.19,70.77,291.51,68.14,297.71Z" transform="translate(-47.27 -170.25)"/><path class="cls-18" d="M148.84,329.46h0c-2.89,2.9-4.88,1-4.88,1.14-.51-1-16.85-32.14-19.12-40.23l-.16.35-.27.55a.36.36,0,0,0-.05.09c-.42.79-1,1.79-1.43,1.83h0c-.17,0-.26-.22-.3-.58a20.39,20.39,0,0,1,.22-4.05c0-.21,0-.38.07-.48a.36.36,0,0,1,0-.1v0c-.11.33-1,2.94-1.78,3.59l0,0a.17.17,0,0,1-.16,0c-.34-1.32,6.64-19.19,6.64-37.48,0-5-2.27-14.3-4.13-21.58,2.14,7.53,8.06,25.94,6.7,39.58-.86,8.61,6.06,14.09,12.92,12.44.1.83.21,1.71.32,2.62,0,.32.09.64.13.95.08.63.16,1.27.25,1.92.05.43.1.86.15,1.31.28,2.11.57,4.35.86,6.65.07.45.12.89.18,1.34l.15,1.18c.08.54.14,1.09.21,1.65.2,1.56.42,3.14.62,4.7.07.64.16,1.26.24,1.88,0,.37.1.73.14,1.08.11.82.21,1.65.32,2.46.19,1.38.36,2.73.53,4,0,.38.09.75.15,1.11.37,2.88.71,5.46,1,7.56.05.34.1.66.13,1a.45.45,0,0,1,0,.11c0,.3.07.58.12.85Z" transform="translate(-47.27 -170.25)"/><path class="cls-19" d="M144.94,336.7s-2.7,10.05-3.75,15.72c-.41,2.23-1.48,6.13-1,7.24.64,1.37,3.53,0,3.53,0a26.67,26.67,0,0,0,3,.49c.69,0,5.19-1.23,5.92-2s-1.75-19-2.34-20.47a4.93,4.93,0,0,0-1.53-2.1Z" transform="translate(-47.27 -170.25)"/><path class="cls-2" d="M77.13,366.88a13.66,13.66,0,0,0-.9-3.16A28.1,28.1,0,0,0,73.05,362s2.41,1.58,2.75,1.92a12,12,0,0,1,.67,3Z" transform="translate(-47.27 -170.25)"/><polygon class="cls-6" points="75.68 60.55 68.79 60.55 76.77 64.53 75.68 60.55"/><path class="cls-5" d="M98.6,256.37a17,17,0,0,1,4.69-1,5.29,5.29,0,0,1,2.71.52l-.72-1.78s3.44.39,4.43-.6,1.39-5,1.39-5l.67,2,2.32-4.61S99.6,252.44,98.6,256.37Z" transform="translate(-47.27 -170.25)"/></g></g></svg>