<svg xmlns="http://www.w3.org/2000/svg" viewBox="0 0 124.09 308.8"><defs><style>.cls-1{isolation:isolate;}.cls-2,.cls-23{fill:#f38855;}.cls-3{fill:#ffa765;}.cls-4{fill:#901d40;}.cls-17,.cls-4{opacity:0.29;}.cls-17,.cls-20,.cls-4{mix-blend-mode:multiply;}.cls-5{fill:#8b3c2c;}.cls-6{fill:#e4754c;}.cls-7{fill:#d87258;}.cls-8{fill:#b05658;}.cls-9{fill:#ffead7;}.cls-10{fill:#814a3b;}.cls-11{fill:#ffbf4d;}.cls-12{fill:#3f1b08;}.cls-13,.cls-18{fill:#fff;}.cls-14{fill:#b45a47;}.cls-15{fill:#e1671f;}.cls-16{fill:#cb4f18;}.cls-17{fill:#6c1d08;}.cls-18,.cls-20,.cls-23{opacity:0.5;}.cls-18{mix-blend-mode:soft-light;}.cls-19,.cls-20{fill:#9b90ac;}.cls-21{fill:#b2a9bf;}.cls-22{fill:#c4bdce;}.cls-24{fill:#b35a3e;}.cls-25{fill:#792c1d;}.cls-26{fill:#e57d58;}.cls-27{fill:#ce6a58;}</style></defs><title>stage3</title><g class="cls-1"><g id="evolution"><path class="cls-2" d="M568.86,357.1c-.35.35-4.9,1.15-8.89,1.69h0c-2.32.31-4.43.55-5.43.55-2.73,0-8.71-1.66-11-1.66s-11.09.6-12.3,0c-.6-.31-.25-3.47.25-6.75s1.15-6.72,1.15-7.54c0-1.66-6.12-17.75-8.37-22.48s-5.05-8.71-5.85-14.81,2.81-18.53,2.81-21.72c0-2-3.5-13.89-7.89-25.39-2.74-7.14-5.4-14.14-6.82-18.57-3.72-11.56,3.07-38,17.29-38,0,0,6.64,29.23,9.56,44.12.38,2,.72,3.8,1,5.5h0c.7,4.22,1.12,7.65,1.35,10.41.38,4.55.31,7.25.31,8.59,0,2.47-1.47,8.9-1.47,10.2s5.32,57,6.38,58.06,12.37,8.43,18.82,13.1c0,0,8.57-.59,9.17,0S569.42,356.55,568.86,357.1Z" transform="translate(-467.07 -60.49)"/><path class="cls-3" d="M515.76,208s-1.21,11.08-2.92,23.83c-1.17,8.62-2.57,18-4,25.24-.85,4.29-1.6,7.9-2.29,10.95v0c-2.18,9.61-3.76,13.68-5.85,16.69-2.75,4-8.68,26.38-13.12,40.56a118.71,118.71,0,0,0-3.78,14.61,26.11,26.11,0,0,0-.47,4.11v.27c0,.54,7,6.66,13.5,14.63,0,0,7.47,1.29,8.74,1.92s2.28,3.63,2.28,4.32-5.71,1.18-5.71,1.18a3.29,3.29,0,0,1-.53,1.58c-.41.42-3.8.36-3.8.36a2.78,2.78,0,0,1-.56.71c-.42.42-4.82,0-4.82,0a1,1,0,0,0-.95.19c-.38.36-5.23-.06-6.68-.59a9.92,9.92,0,0,1-2.45-1.66c-1.62-1.35-3.69-3.37-5.85-5.52-3.52-3.52-8.46-7.44-9.35-9s6.74-9.93,7.23-11.35,2.3-16.69.71-27.16,1.81-15.27,4-18.25c2.63-3.61,4.36-6.89,4.92-9.44,2-9,2.08-25.56,1.72-40.9-.37-16.05-1.22-30.75-.82-33.95C485.7,205,511.1,201.08,515.76,208Z" transform="translate(-467.07 -60.49)"/><path class="cls-2" d="M512.84,231.81c-1.17,8.62-2.57,18-4,25.24-.85,4.29-1.6,7.9-2.29,10.95v0s-10.68,1.65-14.64,5.59c-2.67,2.67-4.45,13.28-6.19,18.27s-3.41,13.69-6.11,26.54c-2.36,11.21,1.86,17.89,4.19,21.46a26.11,26.11,0,0,0-.47,4.11c-3.79,2-12.09,5.51-12.09,7,0,2.54,3.57,6.87,7.48,10.77,1.27,1.28,3.34,3.87,3.63,5.12-1.62-1.35-3.69-3.37-5.85-5.52-3.52-3.52-8.46-7.44-9.35-9s6.74-9.93,7.23-11.35,2.3-16.69.71-27.16,1.81-15.27,4-18.25c2.63-3.61,4.36-6.89,4.92-9.44,2-9,2.08-25.56,1.72-40.9l2.4-5.2Z" transform="translate(-467.07 -60.49)"/><path class="cls-4" d="M533.32,341.75c0,2.87-1.9,9.26-1.9,9.26.5-3.29,1.15-6.71,1.15-7.54,0-1.66-6.12-17.75-8.37-22.47s-5.05-8.71-5.85-14.82,2.81-18.61,2.81-21.8c0-2-3.5-13.8-7.89-25.31l21-6.92c.7,4.21,1.12,7.65,1.35,10.4,0,0-9.61,8.54-11,13s-3.42,14-4.29,27C519.56,313.85,533.32,338.89,533.32,341.75Z" transform="translate(-467.07 -60.49)"/><path class="cls-5" d="M540.59,216.11,536.78,223s-1.6,2.92,0,4.51c0,0,3.21,0,4.89-1.69s6.85-7.14,6.85-7.14Z" transform="translate(-467.07 -60.49)"/><path class="cls-6" d="M492.27,153.62s-6.78,16.18-6.78,21,10.78,22.33,10.78,22.33l9.17-12Z" transform="translate(-467.07 -60.49)"/><path class="cls-2" d="M537.47,116.31s-7.69-.77-9.62,0-3.59,7.35-3.59,8.59,4.08,16.49,5.32,28.45c0,0-1.06,4.7-3.46,7.09v29.87c0,3.36-1.86,10.63-1.86,10.63s-7.44,24.95-21.67,24.95-18.87-12.63-17.81-17.29,15-27.11,15-29.24S488.85,153.05,488.85,144c0-21.06,31.34-47.33,31.34-47.33Z" transform="translate(-467.07 -60.49)"/><path class="cls-3" d="M540.08,73.17A50.81,50.81,0,0,1,543.91,82a10.55,10.55,0,0,1-.82,4.27,71.81,71.81,0,0,1,4.55,7,19.28,19.28,0,0,1,1.82,5.62,6.52,6.52,0,0,1-2.47,2l-1.42.53a14.51,14.51,0,0,1,.57,2.82s1.43,0,1.79.35c0,0-2.7,9-4.84,11.17,0,0-9.16,1.32-17.07-3.51S520.46,99,519.55,94.5A14.33,14.33,0,0,1,522,83.09C525.58,78.26,533.43,74.55,540.08,73.17Z" transform="translate(-467.07 -60.49)"/><path class="cls-2" d="M542.22,85.25s.6,6.34-.44,10.12a14.42,14.42,0,0,1-8.42-1.81s-.71,5.92,1.54,10.23l-9.23,3.82-3.92-18.69L519.24,78.3l20.84-5.13s-7.25,4.3-6.72,6.84c.49,2.37,2.43,3,2.75,4.39Z" transform="translate(-467.07 -60.49)"/><path class="cls-5" d="M533.85,88l1-4.14v1.5s4.89-4.13,9.37-4.93c0,0,.38,2.75-.66,3.79l1-1a4.21,4.21,0,0,1-1.15,2,18,18,0,0,0-4.8.75A36.26,36.26,0,0,0,533.85,88Z" transform="translate(-467.07 -60.49)"/><path class="cls-7" d="M540.87,89.86s-1.54-2.06-2.46-1.88c-.68.14-1.85,1.84-2.3,4.5A18.35,18.35,0,0,1,540.87,89.86Z" transform="translate(-467.07 -60.49)"/><path class="cls-8" d="M536.42,92.91A5.18,5.18,0,0,0,540.71,95s.16-.37-.39-2.13S536.42,92.91,536.42,92.91Z" transform="translate(-467.07 -60.49)"/><path class="cls-9" d="M536.11,92.48a4.38,4.38,0,0,0,4.25,2s.61-1.27.22-4.41A10.06,10.06,0,0,0,536.11,92.48Z" transform="translate(-467.07 -60.49)"/><path class="cls-10" d="M538.94,90.88s.5,3.41,1.5,3.41a9,9,0,0,0,.14-4.2Z" transform="translate(-467.07 -60.49)"/><path class="cls-11" d="M479.6,255.62a3.85,3.85,0,0,0-3.26,2.41l1.13-.7a21.24,21.24,0,0,0,5.25,1.75c3.16.64,10.17-1.73,10.17-1.73l1.2-2.22v1.47s1.58-4.28,2.32-5,2,0,2,0v2.64l.84-1s1,10.25,2.65,11.93v-1s4.59,4.23,8.65,5.56,12.9-2.58,12.9-2.58V268s5.18-3.19,6.11-5l.87.53s7.77-5.31,8.77-8.24L541,255s-2.11-1.73-3.65-1.73-15,9.57-20.14,9S503.59,244.62,496.08,246,479.6,255.62,479.6,255.62Z" transform="translate(-467.07 -60.49)"/><path class="cls-5" d="M489.46,136.7,488,135.63l-2.93,3.86s-3.51-16.65-4.35-25,.42-23.42.42-23.42l-4.44-.7S492.35,69.46,497,66.83c9-5,30-4.53,30-4.53l-2.4-1.81c10.21,3.6,13.77,9.13,13.77,9.13V63.84a37.9,37.9,0,0,1,1.67,9.33S528.19,76.66,524,80.83c0,0,2.64,3.16,2.64,4.73s-2.86,5.93-2.86,9.67l-4.24-.73s-1.15-3-3.24-3.45-2.58,11.49-2.58,11.49A122.61,122.61,0,0,0,489.46,136.7Z" transform="translate(-467.07 -60.49)"/><path class="cls-12" d="M536.11,92.48a28.27,28.27,0,0,1,5.67-2.8,5.17,5.17,0,0,0-3.39.67A5.51,5.51,0,0,0,536.11,92.48Z" transform="translate(-467.07 -60.49)"/><path class="cls-4" d="M529.58,153.35a19.64,19.64,0,0,1-8.11-.84l-3.72-1.4.8,7s6.38,2.35,7.57,2.35A17.3,17.3,0,0,0,529.58,153.35Z" transform="translate(-467.07 -60.49)"/><path class="cls-11" d="M495.6,187.48l-2.27-1.18h2.95s2.12,2.21,3.34,3.43,4.44.86,4.44.86l-.43.67a36.63,36.63,0,0,0,7.73,3.94c4.93,1.91,15.49,1.71,15.49,1.71l-3.12,1.86S503.36,198.39,495.6,187.48Z" transform="translate(-467.07 -60.49)"/><path class="cls-13" d="M539.7,92.33c0,.12-.2.25-.49.29s-.53,0-.55-.14.21-.25.49-.29S539.68,92.21,539.7,92.33Z" transform="translate(-467.07 -60.49)"/><path class="cls-7" d="M545.57,101.32h-2.39A6.83,6.83,0,0,1,546,99.94a26.08,26.08,0,0,0,3.42-1.13A6.56,6.56,0,0,1,545.57,101.32Z" transform="translate(-467.07 -60.49)"/><path class="cls-14" d="M547.93,104.49s-5,1.11-8.39,1.9c0,0,5.46-2.25,6.6-2.25A4.06,4.06,0,0,1,547.93,104.49Z" transform="translate(-467.07 -60.49)"/><path class="cls-5" d="M523.26,80.41a36.7,36.7,0,0,1,8.37-1.56l-2.43-.7s2.08-2.5,7.79-2.74a27.61,27.61,0,0,0-9.75,1.15C522.22,78.15,523.26,80.41,523.26,80.41Z" transform="translate(-467.07 -60.49)"/><path class="cls-15" d="M537.36,253.27a86.13,86.13,0,0,1-7.83,7.09,41.3,41.3,0,0,1-10.71,6.49,13.44,13.44,0,0,1-11.06-1.1,18.19,18.19,0,0,1-4.36-3.2s-3.19-13.26-5.93-14-5.11,6.58-5.11,6.58-8.16,2.07-12.76.48c0,0,2.84-3.52,2.84-6.11s.24-33.54,1-37.44c.48-2.46,2.61-7,4.95-11.55.16-.32.33-.64.5-1,3.23-6.21,6.7-12.09,6.7-12.09a48,48,0,0,0,10.91,7.23,30.77,30.77,0,0,0,4.83,1.72h0a76.88,76.88,0,0,0,12,2.14s.43,1.87,1.15,4.94c.15.59.3,1.22.45,1.9.33,1.36.69,2.88,1.09,4.52l.5,2C529.82,225.71,534.86,246.05,537.36,253.27Z" transform="translate(-467.07 -60.49)"/><path class="cls-16" d="M502.1,198.57a1.4,1.4,0,0,0-2,1.58.85.85,0,0,0,1,.58,3.68,3.68,0,0,0,.35-.15c.18.23.57.57.53.84s-.44.52-.67.63c-1.19.57-2.43-.15-3.59.24a.36.36,0,0,0-.16.6,4.55,4.55,0,0,0,3.61.65,2.59,2.59,0,0,0,.94-5Z" transform="translate(-467.07 -60.49)"/><path class="cls-16" d="M518.57,231.15a2.57,2.57,0,0,1-3.21,1.42,3,3,0,0,1-2-2.89,3.43,3.43,0,0,1,2-2.77c.7-.27,3.11-.38,3.47.51a.61.61,0,0,0,1.1.15c1.49-2-2.31-3.11-3.63-3.06a2.9,2.9,0,0,0-2.54,1.55c-.53.83-1.77,2-1.83,3,0,.38.15.52.27.88.24.73.11,1.48.31,2.19a3.8,3.8,0,0,0,2.12,2.17,4.34,4.34,0,0,0,5.91-2C521.18,231,519.18,229.83,518.57,231.15Z" transform="translate(-467.07 -60.49)"/><path class="cls-16" d="M521.36,229.05a2.21,2.21,0,0,0-.37-.55.69.69,0,0,0-1,0,2.17,2.17,0,0,0-.36.55,1,1,0,1,0,1.69,0Z" transform="translate(-467.07 -60.49)"/><path class="cls-16" d="M518.53,217.93c-.32-.78-.68-1.85-1.69-1.69-.34.06-.36.48-.18.69a4.58,4.58,0,0,1,.78,1.46c.2.68-.19,1.11-.75,1.47a4.65,4.65,0,0,1-3.32.47.59.59,0,0,0-.71.93c1.39,1.44,4.58,1.17,5.82-.38A3,3,0,0,0,518.53,217.93Z" transform="translate(-467.07 -60.49)"/><path class="cls-16" d="M513.56,215.44c-1,0-2.35.61-2.19,1.83a.58.58,0,0,0,.55.42c.47,0,.91-.41,1.38-.32C514.74,217.63,515,215.41,513.56,215.44Z" transform="translate(-467.07 -60.49)"/><path class="cls-16" d="M504,219.43a.88.88,0,0,0-.72-.42l-.29,0a.56.56,0,0,0-.55.55c0,1,.67,1.52,0,2.59A3.79,3.79,0,0,1,499,223.8c-3.59-.31-2.33-4.47-.73-6.22a.48.48,0,0,0-.58-.75,5.13,5.13,0,0,0-2.8,4.32,4.35,4.35,0,0,0,2.75,4.27C500.74,226.45,506.58,222.92,504,219.43Z" transform="translate(-467.07 -60.49)"/><path class="cls-16" d="M501.11,216.71c-.36,0-1,.17-.92.64a1.87,1.87,0,0,0,.46,1.1.85.85,0,0,0,1.44-.6A1.13,1.13,0,0,0,501.11,216.71Z" transform="translate(-467.07 -60.49)"/><path class="cls-16" d="M501.57,237.33a2.85,2.85,0,0,0-2.52-2.82c-1.12-.13-3.17,0-3.31,1.42,0,.24.25.4.45.35a4.79,4.79,0,0,1,2.36-.38c.95.19,1.24.79,1.38,1.7s.14,1.44-.76,1.89-2.23,1.35-3.14.54a.46.46,0,0,0-.64.65c1.12,1.36,2.93.46,4.24-.1A2.77,2.77,0,0,0,501.57,237.33Z" transform="translate(-467.07 -60.49)"/><path class="cls-16" d="M494.66,238c-.1-.69-1.18-.5-1.18.16v.19c0,.87,1.36.75,1.22-.17Z" transform="translate(-467.07 -60.49)"/><path class="cls-16" d="M522.11,248.4c-.15-.78-1.15-.72-1.53-.2a4,4,0,0,1-4.07,1.33c-1.07-.22-.6-.14-.52-.83,0-.43.19-.57.08-1s-.35-.52-.55-.87a1.37,1.37,0,0,1-.38-.38.59.59,0,0,0,.24-.23c.24-1.27,1-2.89,2.55-2.38a.87.87,0,0,0,1.06-1.06c.06.23.33.38.51.51a.5.5,0,0,0,.5,0l.2-.11a.88.88,0,0,0,.31-1.16,1.69,1.69,0,0,0-3.17,0c-1.51,0-2.59,1-3.23,2.51-.32.74-1.16,1.36-.93,2.28.12.46.61.66.74,1s0,.42,0,1C513.17,252.79,522.86,252.32,522.11,248.4Z" transform="translate(-467.07 -60.49)"/><path class="cls-16" d="M521.71,244.85a.47.47,0,0,0-.8,0,2.14,2.14,0,0,0-.18,2.09.65.65,0,0,0,1.15,0l0,0A2.15,2.15,0,0,0,521.71,244.85Z" transform="translate(-467.07 -60.49)"/><path class="cls-16" d="M523.62,237.6a3,3,0,0,0-1.93-1.83c-.6-.17-1.6.29-1.32,1a.46.46,0,0,0,.67.27l.14.1c.11.1.22.2.32.31a6.94,6.94,0,0,1,.46.8A.91.91,0,0,0,523.62,237.6Z" transform="translate(-467.07 -60.49)"/><path class="cls-16" d="M503,247.05c0-.35-.41-.53-.67-.38-1.42.81-1.66,2.41-1.43,3.9.19,1.29,2.28.77,2-.55A9,9,0,0,1,503,247.05Z" transform="translate(-467.07 -60.49)"/><path class="cls-16" d="M514.71,258.12a13.16,13.16,0,0,1-2-.07,16.08,16.08,0,0,1-1.79-.68c-.69-.24-1,.66-.65,1.12a5.55,5.55,0,0,0,4.69,1.63C516.18,259.85,515.78,258.22,514.71,258.12Z" transform="translate(-467.07 -60.49)"/><path class="cls-16" d="M494.34,210c-.58-.91-1.89-.86-2.83-.6a3.09,3.09,0,0,0-2.12,1.61.46.46,0,0,0,.62.62,5.37,5.37,0,0,1,1.8-.46c.69,0,1.28.43,2,.22A1,1,0,0,0,494.34,210Z" transform="translate(-467.07 -60.49)"/><path class="cls-16" d="M517.57,203.77c-.76-.43-1.59,0-2.41-.06a4,4,0,0,1-1.08-.16c-.41-.12-.33-.27-.43-.64a.71.71,0,0,0-.86-.49c-1.63.57-.58,2.49.57,3s3.7.85,4.52-.42A.87.87,0,0,0,517.57,203.77Z" transform="translate(-467.07 -60.49)"/><path class="cls-16" d="M509.29,260.22c-.23-.78.08-1.7-.34-2.42a1.9,1.9,0,0,0-1.49-.81c-.87-.12-1.63-.61-2.5-.71-1.1-.12-2.65.67-2.19,2a.7.7,0,0,0,1.26.17c.34-.69.91-.35,1.45-.1s1.16.29,1.59.53l.06,0a1,1,0,0,0,0,.16c0,.3-.05.62,0,.93a5.78,5.78,0,0,0,.42,1.52,9.84,9.84,0,0,1-.41,1.27.54.54,0,0,0-.24.6,1,1,0,0,0,1.22.76c.77-.14,1-.77,1.17-1.41a5,5,0,0,0,.4-1.22A4.09,4.09,0,0,0,509.29,260.22Z" transform="translate(-467.07 -60.49)"/><path class="cls-16" d="M500.22,193.61a6.1,6.1,0,0,0-.37-.72.52.52,0,0,0-.8-.1c-.9.71-.12,2.57,1,2.33a.72.72,0,0,0,.5-.65C500.62,194.1,500.4,193.89,500.22,193.61Z" transform="translate(-467.07 -60.49)"/><path class="cls-16" d="M490.79,210.06c0-1-.15-2.39-1.2-2.91a1.58,1.58,0,0,0-2.08.72.28.28,0,0,0,.37.38c1.22-.63.93,2.18.93,2.61s.15,1.11-.13,1.47-.76.24-1.1.33a.78.78,0,0,0-.19,1.4,2.16,2.16,0,0,0,2.7-.52C491,212.61,490.76,211.23,490.79,210.06Z" transform="translate(-467.07 -60.49)"/><path class="cls-16" d="M493.51,200.27c-1.1.9-4.14,1.81-5.11.25.16-.32.33-.64.5-1,.46,0,1,.05,1.4,0a3.11,3.11,0,0,0,1.82-.65c1.28-1,1.13-2.46.66-3.86-.36-1.11,1.22-1.61,1.8-.75A4.72,4.72,0,0,1,493.51,200.27Z" transform="translate(-467.07 -60.49)"/><path class="cls-16" d="M487.1,236.74c-.13-1.52-.4-3.21-1.81-4.09-.52-.32-1.28.36-.89.9a5.08,5.08,0,0,1,1,2.63c0,.38.07,2.76.09,2.76-1.4.07-1,2.24.25,1.82C487.32,240.21,487.23,238.13,487.1,236.74Z" transform="translate(-467.07 -60.49)"/><path class="cls-16" d="M486.58,225.84c-.17-.77-1.2.26-.44.44l.17,0a.26.26,0,0,0,.31-.32Z" transform="translate(-467.07 -60.49)"/><path class="cls-16" d="M532.3,234.68a1.45,1.45,0,0,0-.66-.87c-.38-.22-.83-.37-1-.81-.26-.69.27-2,.5-2.7.11-.3-.26-.53-.51-.39-1.34.73-2.36,1.81-2,3.5.26,1.16,1.74,2.82,3.05,2.33A.88.88,0,0,0,532.3,234.68Z" transform="translate(-467.07 -60.49)"/><path class="cls-16" d="M526.52,212a3.11,3.11,0,0,1-2.06-.1,2.62,2.62,0,0,1-1.58-2,7.88,7.88,0,0,1,0-1.61c0-.63-.17-1.22-.19-1.85-.05-1.13.57-2.82,1.75-2.87.15.59.3,1.22.45,1.9a3.42,3.42,0,0,0,0,1.85,6.74,6.74,0,0,1,.08,1.19c0,.63-.19,1.29.56,1.46a1.91,1.91,0,0,0,.48,0Z" transform="translate(-467.07 -60.49)"/><path class="cls-16" d="M491.16,252.89c-.71-.43-1.55-.38-2.21-1s-1.51-1.91-.53-2.55a.52.52,0,0,0-.4-.95c-2,.28-1.78,2.8-.83,4,.75,1,3.27,2.75,4.12,1A.4.4,0,0,0,491.16,252.89Z" transform="translate(-467.07 -60.49)"/><path class="cls-16" d="M532.21,249.57c-.46-.36-1.44-.59-1.51-1.28s.69-.81,1-1.31a.42.42,0,0,0-.07-.52c-.93-.88-2.21.7-2.35,1.57a2.78,2.78,0,0,0,2.18,2.83C532.14,251,532.86,250.09,532.21,249.57Z" transform="translate(-467.07 -60.49)"/><path class="cls-16" d="M534.32,244.29c-.43-1.12-2.14-2.72-3.43-2.15a.29.29,0,0,0-.14.33c.15.7.81,1.13,1.24,1.66.19.22.54.56.56.86s-.09.25-.16.38-.32.45-.12.25a.47.47,0,0,0-.08.58,1.1,1.1,0,0,0,1.59.29A1.82,1.82,0,0,0,534.32,244.29Z" transform="translate(-467.07 -60.49)"/><path class="cls-16" d="M508.59,208.67a2.4,2.4,0,0,0-1-.63.89.89,0,0,0-1.11.84,2.51,2.51,0,0,0,.39,1.12C507.6,211.46,509.84,209.68,508.59,208.67Z" transform="translate(-467.07 -60.49)"/><path class="cls-16" d="M507.5,224.45c-.52,0-1.37.26-1.31.94a1.31,1.31,0,0,0,.76,1.09,1.09,1.09,0,1,0,.55-2Z" transform="translate(-467.07 -60.49)"/><path class="cls-16" d="M494.57,226.51a1.91,1.91,0,0,0-2.07-.81.82.82,0,0,0-.36,1.36c.28.26.46.51.71.78C493.68,228.74,495.3,227.54,494.57,226.51Z" transform="translate(-467.07 -60.49)"/><path class="cls-16" d="M511.1,238.44a1.49,1.49,0,0,0-2.22-.37.65.65,0,0,0,0,.91,8.63,8.63,0,0,0,1,.71C510.58,240.19,511.63,239.18,511.1,238.44Z" transform="translate(-467.07 -60.49)"/><path class="cls-16" d="M524.89,258.73a1.16,1.16,0,0,0-1.35-.66A2.3,2.3,0,0,0,522,260c-.11.61.53,1.28,1.13.88.41-.28.93-.39,1.32-.67A1.17,1.17,0,0,0,524.89,258.73Z" transform="translate(-467.07 -60.49)"/><path class="cls-16" d="M527.18,217.23a.92.92,0,0,0-1.57,0,7.18,7.18,0,0,0-.49,1.94,1.11,1.11,0,0,0,1,1.09,1.12,1.12,0,0,0,1.21-.8A2.75,2.75,0,0,0,527.18,217.23Z" transform="translate(-467.07 -60.49)"/><path class="cls-4" d="M500.46,140.13s.9,9.74.9,19.24v22.38c0,3.86,10.09,21,16.92,27.83s10,9.75,10,9.75l-4.57-16.81L519,180.82l-14.42-37.13Z" transform="translate(-467.07 -60.49)"/><path class="cls-3" d="M559.12,213.46c-1.51.76-2.16,1.17-2.16,1.17a1.6,1.6,0,0,1-.26,1.65,2.92,2.92,0,0,1-1.77.7,4.8,4.8,0,0,1-.87,1.31,2,2,0,0,1-1.37.51,5.5,5.5,0,0,1-1.71,1,9.76,9.76,0,0,1-6.08-.51l-.19-.06L544,219c-3.25-1.5-8.29-6-9.36-7.81s-2-3.14-3.45-3.76-9.09-6.38-17.51-14.8S505.92,181,505.92,181s2-14.89-.8-27.11-6.83-16.94-6.83-19.41,3.09-18,7.28-20.35c0,0,7.33-2,10.18,2.46a25.7,25.7,0,0,1,2.58,5.69h0a42.06,42.06,0,0,1,2.08,17.08c-.93,8.49-1.14,28.1.33,32.48,0,0,5.91,8.71,8.13,14.47s6.82,13.11,8.6,14.89a2,2,0,0,0,1.85.35c1.89-.32,4.56-1.91,6.65-2.56a5.29,5.29,0,0,1,1.51-.28c2.84,0,7.18,2.91,7.18,2.91l-3.59,3.28s-.66,2.5,2.27,4c2,1.05,4.06-1.13,4.06-1.13S560.63,212.71,559.12,213.46Z" transform="translate(-467.07 -60.49)"/><path class="cls-5" d="M550.78,205.34l7.69-11.53s9.35,1.58,12.45,4.68c0,0-1.17,4.74-1.6,5.17s-11.92,4.13-11.92,4.13l-2.33,1.79S550.78,208.6,550.78,205.34Z" transform="translate(-467.07 -60.49)"/><path class="cls-17" d="M512.7,103.07s7,23.62,15.06,38.43l-3.5-16.6-.86-29.38-5.87.56Z" transform="translate(-467.07 -60.49)"/><polygon class="cls-4" points="88.2 138.12 90.33 147.29 96.91 145.13 90.02 135.4 88.2 138.12"/><path class="cls-18" d="M537,67.93a14.77,14.77,0,0,0-6.91.4c-3.49,1.13-4.39,3.07-5.6,4.28s-4.37,4.07-5.24,4.93a37.92,37.92,0,0,0-3,4.89s-.74-1.42,0-4.19,3.54-7.14,4.89-7.66a60.09,60.09,0,0,0,5.8-3.51l1.9-2.46S535.5,65.18,537,67.93Z" transform="translate(-467.07 -60.49)"/><path class="cls-19" d="M589.9,208.6c-1.47,1.48-9.16,2.2-15,1.9a20.65,20.65,0,0,1-5.8-.93c-4.32-1.69-11.66-11.81-11.66-11.81s-1.3-7.72-1.3-9.41,9.4-13.15,11.27-13.15h.11a2,2,0,0,1,.36.1c3.53,1.13,20.92,11.32,22.07,12.48S592,206.52,589.9,208.6Z" transform="translate(-467.07 -60.49)"/><path class="cls-20" d="M574.85,210.5a20.65,20.65,0,0,1-5.8-.93c-4.32-1.69-11.66-11.81-11.66-11.81s-1.3-7.72-1.3-9.41,9.4-13.15,11.27-13.15h.11a2,2,0,0,1,.36.1l-7,9.23s.39,9.85,3.17,14.08A115.37,115.37,0,0,0,574.85,210.5Z" transform="translate(-467.07 -60.49)"/><path class="cls-21" d="M589.9,208.6s-12.19-8.06-13.71-9.6-15.34-10.84-15.34-14.46,6.51-9.34,6.51-9.34h.11c2.42.37,21.23,11.37,22.43,12.58S592,206.52,589.9,208.6Z" transform="translate(-467.07 -60.49)"/><path class="cls-22" d="M567.16,191.9s3.12,4.78,3.76,5.42,4.41,2,5.09,2.66,1.5,2.3,1.82,2.62,4.37.81,4.37.81-3-2.29-3.59-2.85S567.16,191.9,567.16,191.9Z" transform="translate(-467.07 -60.49)"/><path class="cls-23" d="M553.57,213.13a6.52,6.52,0,0,0-1.86,1.26c-.83.83-1.49,1.16-2.05,1.72s-1.33,1.4-2,2.06a8,8,0,0,1-2.76,1.16l-.19-.06L544,219c-3.25-1.5-8.29-6-9.36-7.81s-2-3.14-3.45-3.76-9.09-6.38-17.51-14.8S505.92,181,505.92,181s2-14.89-.8-27.11-6.83-16.94-6.83-19.41,3.09-18,7.28-20.35c0,0,7.33-2,10.18,2.46a25.7,25.7,0,0,1,2.58,5.69h0s-4.25-1.36-9.85,4.24.84,30.19.84,39.23,2.79,17,10.91,28.39,18.85,7.55,18.85,7.55l.24-.14c1.89-.32,4.56-1.91,6.65-2.56a37.73,37.73,0,0,0,3.08,8.79C551.51,212.6,553.57,213.13,553.57,213.13Z" transform="translate(-467.07 -60.49)"/><path class="cls-7" d="M543.18,99.05s-.54,1.73,0,2.27l-1.93.17Z" transform="translate(-467.07 -60.49)"/><path class="cls-24" d="M490.26,151.93s1-7.18,4.05-10.94l-1.33.62s3.76-7,5.46-8.67c0,0,.43-4.4,2.38-7s7.74-7,7.74-7l-2.29.4s3.55-5.76,7.56-4.56a12.81,12.81,0,0,0-5.27-2.93l5.15-9.28s-9.92,9.44-15,16.66c-5.94,8.44-9.81,19.22-9.81,23.54A39.82,39.82,0,0,0,490.26,151.93Z" transform="translate(-467.07 -60.49)"/><path class="cls-24" d="M508.56,111.83a15.13,15.13,0,0,0,5.88-4.87,52,52,0,0,1-5.12,2Z" transform="translate(-467.07 -60.49)"/><path class="cls-25" d="M539.18,71.52s-4.2-5.8-10.62-5.8l5.29,7.45s-8.54-5.24-13.16-5.24c-5.18,0-14.12,2.62-14.12,2.62s10.55-1.45,14.58-.83,10.07,5.63,10.07,5.63a75.69,75.69,0,0,0-8.05-3.71s-3.3,2.43-3.93,4.71l5.2,1.53a19.9,19.9,0,0,0-5.2.42A59.84,59.84,0,0,0,513,80.41s10,3.68,10.9,7a13.72,13.72,0,0,0-8-4.32s4,4.6,4.92,9l-7,10.43s-11,13.13-16.37,20.63a79.44,79.44,0,0,0-7.9,13.53s5.6-16.29,12.59-28.25l-1.14-13.56s-6.92,9-11.45,24.79c0,0,5-19.44,10.66-30.06l-5,5.4s1.93-8.87,5-14.61a40.69,40.69,0,0,0-19,10.64S494.77,74.19,502,68.78,525.1,62.3,527,62.3,537.36,66.41,539.18,71.52Z" transform="translate(-467.07 -60.49)"/><path class="cls-26" d="M520.78,92.11s-4.6-6.14-9-6.19-6.34,5.51-4.42,10.33c1.63,4.1,7.51,8.33,10.91,6.31,2.39-1.41,2.65-3.83,2.88-6.43A15.08,15.08,0,0,0,520.78,92.11Z" transform="translate(-467.07 -60.49)"/><path class="cls-27" d="M519.79,94.89s-3.65-3.93-6.51-4.48-4.72,3.13-4.72,3.13a12.26,12.26,0,0,1,5.37-.58A17.84,17.84,0,0,1,519.79,94.89Z" transform="translate(-467.07 -60.49)"/><path class="cls-27" d="M514.92,99.39a3.94,3.94,0,0,0,2.44-2,6.17,6.17,0,0,0-.09-4.18l-1.53-1a6.91,6.91,0,0,1,1.06,4.42A3.69,3.69,0,0,1,514.92,99.39Z" transform="translate(-467.07 -60.49)"/><path class="cls-2" d="M509.17,87s.75,2.11,2.25,2.4c2.08.42,4.08.94,7.37,4a2.1,2.1,0,0,0,1-2.25C519.59,90,512.83,84.63,509.17,87Z" transform="translate(-467.07 -60.49)"/><path class="cls-5" d="M546.63,108.41s.3,8.82.3,17.19l-.61-5.52s-1.19,7.71-2.72,14.86a64,64,0,0,1-2.84,10.32l-.68-3-1.67,2.58s-5.52-.79-8.07-3.35-8-21.25-8-21.25l-1.23,3.52a117.23,117.23,0,0,1-1.36-16.2,136.83,136.83,0,0,1,1-15.45l3,3.13s.93,7.42,5.4,10c0,0,8-4.39,16.37-4a12.48,12.48,0,0,1,1.36,2.26l-1.11-1,.24.84a27.22,27.22,0,0,0-5.35,1.26l-1.17-1.57.83,1.63s-1.54,1-1.79,1.68,2.39,3.26,2.91,3.78l-.63-2.56a32.25,32.25,0,0,0,2.32,3C543.71,111.14,546.13,109.83,546.63,108.41Z" transform="translate(-467.07 -60.49)"/><path class="cls-25" d="M543.6,134.94a64,64,0,0,1-2.84,10.32l-.68-3-1.67,2.58s-5.52-.79-8.07-3.35-8-21.25-8-21.25l-1.23,3.52a117.23,117.23,0,0,1-1.36-16.2,136.83,136.83,0,0,1,1-15.45S521.93,110,525,118.69l.64-2.86s1.57,14.61,5.2,20.87V125.84L532.7,133l-.64-11.71s3.27,13.73,6.43,17.64a33.66,33.66,0,0,0,3.9-10.73S543,131.28,543.6,134.94Z" transform="translate(-467.07 -60.49)"/><path class="cls-25" d="M546.93,103.58l-1.11-1,.24.84-5.35,1.26-1.17-1.57.83,1.63s-1.79,1-1.79,1.68a3.79,3.79,0,0,0,.36,1.44l-2.52-3,1.56.45,1.2-.79.36-2.31,1.93,1.27,3.1-.36,1-1.76A7.41,7.41,0,0,1,546.93,103.58Z" transform="translate(-467.07 -60.49)"/><path class="cls-24" d="M488.85,144a41.25,41.25,0,0,0,2.5,11.67c2.45,7.2,8.76,22.75,8.45,23.74s-3.52,6.94-3.52,6.94,4.53-6.32,4.81-7.07-5-16.22-5-16.22l1.53,1.4s-5.75-12.94-6.17-17.57Z" transform="translate(-467.07 -60.49)"/><path class="cls-24" d="M491.33,150.11l1.19-3.38s-.3,3-.3,5.78Z" transform="translate(-467.07 -60.49)"/><polygon class="cls-24" points="30.43 70.03 35.39 67.87 31.38 72.44 30.43 70.03"/><path class="cls-4" d="M529.58,259.49l-.05.87a41.3,41.3,0,0,1-10.71,6.49,13.44,13.44,0,0,1-11.06-1.1l0-.2s8.2-31.07,6.66-41.1A80.26,80.26,0,0,0,509,205.82a87.9,87.9,0,0,1,9.57,12.11l5.13-5.83v9.09Z" transform="translate(-467.07 -60.49)"/><path class="cls-4" d="M491.81,211.21c-1.11,3.37-9.86,44.88-9.86,44.88a6.68,6.68,0,0,1-2.35-.47s2.84-3.52,2.84-6.11.24-33.54,1-37.44c1.19-6,12.15-24.59,12.15-24.59a48,48,0,0,0,10.91,7.23,30.77,30.77,0,0,0,4.83,1.72l-10.76-2S494.48,203.13,491.81,211.21Z" transform="translate(-467.07 -60.49)"/><path class="cls-4" d="M559.94,358.79c-2.32.31-4.43.55-5.43.55-2.73,0-8.71-1.66-11-1.66s-11.09.6-12.3,0c0,0,7-.5,11.26-2s11.26,2.56,14.18,2.83C557.43,358.58,558.63,358.69,559.94,358.79Z" transform="translate(-467.07 -60.49)"/><path class="cls-2" d="M502.13,366.3a14,14,0,0,0-1.24-2.56,22.53,22.53,0,0,0-3.79-1.38s4.62.29,5.75.88a8.82,8.82,0,0,1,2.36,2.71Z" transform="translate(-467.07 -60.49)"/><polygon class="cls-2" points="31.03 307.77 29.53 305.81 30.17 308.47 31.03 307.77"/><path class="cls-4" d="M492.36,255.14l1.11-37.44-6.84,38.39A35.86,35.86,0,0,0,492.36,255.14Z" transform="translate(-467.07 -60.49)"/><path class="cls-18" d="M546.66,96a3.91,3.91,0,0,0,.61,2.61c.81.87,2,0,2,0a9.17,9.17,0,0,0-.83-2.59A1.18,1.18,0,0,0,546.66,96Z" transform="translate(-467.07 -60.49)"/><path class="cls-9" d="M544.8,100.32c-.31-.31,1.17-1,1.55-.63S545.13,100.65,544.8,100.32Z" transform="translate(-467.07 -60.49)"/></g></g></svg>