<svg xmlns="http://www.w3.org/2000/svg" viewBox="0 0 159.81 328.94"><defs><style>.cls-1{isolation:isolate;}.cls-2{fill:#8b3c2c;}.cls-24,.cls-3{fill:#f38855;}.cls-4{fill:#ffa765;}.cls-5{fill:#901d40;}.cls-13,.cls-5{opacity:0.29;}.cls-13,.cls-23,.cls-5{mix-blend-mode:multiply;}.cls-6{fill:#d87258;}.cls-7{fill:#b05658;}.cls-8{fill:#ffead7;}.cls-9{fill:#814a3b;}.cls-10{fill:#3f1b08;}.cls-11,.cls-12{fill:#fff;}.cls-12,.cls-23,.cls-24{opacity:0.5;}.cls-12{mix-blend-mode:soft-light;}.cls-13{fill:#6c1d08;}.cls-14{fill:#792c1d;}.cls-15{fill:#e57d58;}.cls-16{fill:#ce6a58;}.cls-17{fill:#b45a47;}.cls-18{fill:#e1671f;}.cls-19{fill:#b04718;}.cls-20{fill:#ffbf4d;}.cls-21,.cls-23{fill:#9b90ac;}.cls-22{fill:#b2a9bf;}</style></defs><title>stage4</title><g class="cls-1"><g id="evolution"><path class="cls-2" d="M624.18,257.08s9.36,1.61,18.19,3,21.52,4.79,21.52,4.79l3.34-1.06s5.37-3.47,0-12.95-28.13-29.7-28.13-29.7l-15.7,15.5s-3.38,14.83-3.38,16S624.18,257.08,624.18,257.08Z" transform="translate(-581.21 -40)"/><path class="cls-3" d="M625.41,140.65s-7,16.81-7,21.79,11.2,23.21,11.2,23.21l9.54-12.43Z" transform="translate(-581.21 -40)"/><path class="cls-2" d="M623,133.78s-1.09,8.58-.77,10,4.79,4.55,4.79,4.55Z" transform="translate(-581.21 -40)"/><path class="cls-3" d="M695.58,357.52c-.65.65-9.09,2.86-11.5,2.86a29.77,29.77,0,0,1-9.22-2.15c-3-1.17-16.12.85-17.68-.71s2.6-16.63,2.6-20.4a11.08,11.08,0,0,0-1.1-3.62l0,0c-1.26-2.92-3.41-6.93-5.46-11.07l0,0c-2.17-4.38-4.23-8.91-5-12.43-1.91-8.66,1.9-23.39,1.9-25.6,0-1.33-6.6-26.7-11.83-46.62-3.43-13.08-6.28-23.8-6.28-23.8,11.65-4.7,25.84-18,28-10.67,2.53,8.72,4.49,20.89,5.79,33.34,1,9.93,1.64,20,1.79,28.72.17,10.95-.38,19.63-1.77,22.79-2.5,5.72.85,44.23,2.66,48.13s16.57,15.07,18.52,15.92,7.11.61,7.73,1.23S696.23,356.87,695.58,357.52Z" transform="translate(-581.21 -40)"/><path class="cls-3" d="M639.81,82.3s-18.36,35.45-16.93,50.11,7.72,38.05,7.72,40-12.24,22.77-12.24,34.86c0,0,11,15.13,20.74,14S660,201,660,197.17s1.58-52.49,1.58-52.49l2.5-5.42s.06-21.4-10.37-37.42l3.78-10.42S652.76,78.86,639.81,82.3Z" transform="translate(-581.21 -40)"/><path class="cls-4" d="M667.07,54.41a53.24,53.24,0,0,1,4,9.14A10.81,10.81,0,0,1,670.2,68a74.72,74.72,0,0,1,4.73,7.24,20.45,20.45,0,0,1,1.9,5.84,6.81,6.81,0,0,1-2.58,2.06l-1.47.55a15.2,15.2,0,0,1,.59,2.94,3.71,3.71,0,0,1,.8.6s-1.75,9.15-4,11.37c0,0-9.52,1.37-17.74-3.65s-5.78-13.71-6.73-18.35a14.93,14.93,0,0,1,2.55-11.86C652,59.7,660.16,55.85,667.07,54.41Z" transform="translate(-581.21 -40)"/><path class="cls-3" d="M669.29,67s.63,6.59-.46,10.52a14.94,14.94,0,0,1-8.75-1.88s-.73,6.15,1.61,10.63l-9.59,4L648,70.78l-2.61-11,21.66-5.33s-7.54,4.47-7,7.11c.52,2.46,2.54,3.13,2.86,4.57Z" transform="translate(-581.21 -40)"/><path class="cls-2" d="M660.6,69.81l1.08-4.31v1.56s5.09-4.3,9.75-5.12c0,0,.39,2.85-.69,3.93l1.08-1.08a4.41,4.41,0,0,1-1.2,2.11,18.25,18.25,0,0,0-5,.78A37.14,37.14,0,0,0,660.6,69.81Z" transform="translate(-581.21 -40)"/><path class="cls-5" d="M652.89,276.74c0,1.12.63,6.14.63,9.14s-5.74,14.67-3.36,25.87a65.45,65.45,0,0,0,3,10.6c-2.17-4.38-4.23-8.91-5-12.43-1.91-8.66,1.9-23.39,1.9-25.6,0-1.33-6.6-26.7-11.83-46.62l12.35-6.57,15.14,5.44c1,9.93,1.64,20,1.79,28.72v.1S652.89,273.42,652.89,276.74Z" transform="translate(-581.21 -40)"/><path class="cls-6" d="M667.89,71.76s-1.6-2.15-2.56-2c-.7.14-1.92,1.91-2.39,4.68A19.18,19.18,0,0,1,667.89,71.76Z" transform="translate(-581.21 -40)"/><path class="cls-7" d="M663.27,74.93a5.38,5.38,0,0,0,4.46,2.19s.16-.38-.41-2.21S663.27,74.93,663.27,74.93Z" transform="translate(-581.21 -40)"/><path class="cls-8" d="M662.94,74.49a4.58,4.58,0,0,0,4.43,2.09s.63-1.31.22-4.58A10.45,10.45,0,0,0,662.94,74.49Z" transform="translate(-581.21 -40)"/><path class="cls-9" d="M665.89,72.82s.52,3.54,1.56,3.54a9.34,9.34,0,0,0,.14-4.36Z" transform="translate(-581.21 -40)"/><path class="cls-10" d="M662.94,74.49a29.29,29.29,0,0,1,5.89-2.92,5.39,5.39,0,0,0-3.52.7A5.73,5.73,0,0,0,662.94,74.49Z" transform="translate(-581.21 -40)"/><path class="cls-11" d="M666.68,74.33c0,.12-.21.25-.51.29s-.56,0-.57-.14.21-.26.51-.3S666.66,74.21,666.68,74.33Z" transform="translate(-581.21 -40)"/><path class="cls-6" d="M672.78,83.67h-2.49a7.17,7.17,0,0,1,3-1.43,27.35,27.35,0,0,0,3.56-1.18A6.81,6.81,0,0,1,672.78,83.67Z" transform="translate(-581.21 -40)"/><path class="cls-4" d="M637.35,296.32c-1.3,2.86-13.17,45.22-12.39,49.37a5.15,5.15,0,0,0,1,2c3.14,4.3,12.55,10.23,13.44,10.54s10.53,1.2,11,1.72,1.64,4.37,1.3,4.71-4.71.52-4.71.52.52,1.63,0,2.15a8.19,8.19,0,0,1-2.6,1,4.22,4.22,0,0,1-1.95.67c-.94,0-4-.38-4-.38a9.56,9.56,0,0,1-4,.34h0a20.61,20.61,0,0,1-2.59-.33c-4.55-.84-8.9-1.88-15.33-2.73s-7.34-2.66-7.34-2.66c-.52-5.39,5.33-15.79,6.36-19.56s-1.94-26.37-.9-33.13,8.18-17.54,10.52-24.43c1.39-4.09.21-27.12-1-47.05-.81-13.63-1.63-25.8-1.63-29.44,0-9,8.1-6.56,15.85-9.42,3-1.11,12.82-1.28,15.77,13.91,1,4.92.46,13.08-.72,22.11-.71,5.42-1.67,11.16-2.72,16.68h0c-2.58,13.68-5.69,26.09-6.86,29.41C641.51,289.16,638.65,293.46,637.35,296.32Z" transform="translate(-581.21 -40)"/><path class="cls-6" d="M670.29,81.32s-.56,1.79,0,2.35l-2,.18Z" transform="translate(-581.21 -40)"/><path class="cls-12" d="M673.91,78.12a4,4,0,0,0,.64,2.71c.84.9,2.07,0,2.07,0a9.45,9.45,0,0,0-.87-2.69A1.23,1.23,0,0,0,673.91,78.12Z" transform="translate(-581.21 -40)"/><path class="cls-8" d="M672,82.64c-.33-.33,1.22-1.06,1.61-.66S672.32,83,672,82.64Z" transform="translate(-581.21 -40)"/><path class="cls-2" d="M667.89,56s3.93-4.5,3.93-6.32l-3.53,4.27s-1.44-4.76-3-6.28S649.65,40,649.65,40l1.82,2.86a48.36,48.36,0,0,0-30,18.06l4.29-1.56s-3.12,5.38-3.12,22.31a200.38,200.38,0,0,0,3.25,33.58s12.51-28.79,15-32.23A63.21,63.21,0,0,1,646,77l0,2.91,2.6-1.7s-.52-4.24.69-7.27a50.56,50.56,0,0,1,2.77-5.72l-2.33-.78S655.72,58,667.89,56Z" transform="translate(-581.21 -40)"/><path class="cls-5" d="M656,105.84s1.82,1.85,1.82,11.54S650.46,139,649.44,140s-2.76,5-2.76,5l.4,2.56s10.28-6,12.39-11.25,1.65-20.62,1.65-20.62Z" transform="translate(-581.21 -40)"/><path class="cls-13" d="M638.45,86.59s6.79,11.65,15.21,15.25l.76-2.1-8-15.89-1-3.76-5.6,2.65Z" transform="translate(-581.21 -40)"/><path class="cls-12" d="M664.43,47.42s-2.7,2.41-4.48,2.66-5.06.84-6.94,1.92a30.28,30.28,0,0,0-5.62,3.83c-1.36,1.36-3.17,1.34-4.09,3.63a15.76,15.76,0,0,0-.93,5s1.9-5,5-7.09,7.79-1.63,9.08-2.92a20.5,20.5,0,0,1,5.92-3.58,26.84,26.84,0,0,0,3.82-1.89S665.05,47.42,664.43,47.42Z" transform="translate(-581.21 -40)"/><path class="cls-14" d="M668.29,53.9s-2-5.09-4.26-5.84a24.46,24.46,0,0,0-4.83-1,14.3,14.3,0,0,1,4.4,2.35c1.32,1.32,1.73,6.09,1.73,6.09s-2.58-4.28-4.73-5-6.59.77-6.59.77,3.38,3.23,5.25,5.11c0,0-4.5-2.63-7.81-2.63s-8.44.66-8.44.66,6.44.34,8.63,2,3.5,2.75,3.5,2.75a29.9,29.9,0,0,0-7.07-1.32c-2.87,0-6.88,4.13-6.88,4.13l8.55,2.49h-4.67c-.68,0,1.94,9.67,1.94,9.67L639.76,85s-13,27.31-13.89,30.28c0,0,5.7-22.25,7.7-28.12l-5.68,3.08s1.71-21.21,6.41-27l-5.57,5s7-12,13-16.52l-4.31,1.12s10.43-5.81,15.93-6.94S660.6,45,660.6,45s4.39,1.71,5.29,3.34S668.29,53.9,668.29,53.9Z" transform="translate(-581.21 -40)"/><path class="cls-3" d="M653.52,236.16c-.71,5.42-1.67,11.16-2.72,16.68h0c-.61.38-20.09,12.56-23.53,16v17.82c0,2.5-6.8,11.33-8.9,24.33s-1.93,34.69,6.6,34.69l1,2a18.14,18.14,0,0,0-9.8,7.09s-2.63,5.09,4.87,8a119.87,119.87,0,0,1,13.49,6.14,20.61,20.61,0,0,1-2.59-.33c-4.55-.84-8.9-1.88-15.33-2.73s-7.34-2.66-7.34-2.66c-.52-5.39,5.33-15.79,6.36-19.56s-1.94-26.37-.9-33.13,8.18-17.54,10.52-24.43c1.39-4.09.21-27.12-1-47.05L652,235.18Z" transform="translate(-581.21 -40)"/><path class="cls-15" d="M647,74.1s-4.78-6.38-9.4-6.44S631,73.39,633,78.4c1.71,4.26,7.81,8.66,11.35,6.57,2.48-1.47,2.75-4,3-6.69A15.56,15.56,0,0,0,647,74.1Z" transform="translate(-581.21 -40)"/><path class="cls-16" d="M646,77s-3.8-4.09-6.76-4.66-4.92,3.25-4.92,3.25a12.8,12.8,0,0,1,5.59-.59A18.34,18.34,0,0,1,646,77Z" transform="translate(-581.21 -40)"/><path class="cls-16" d="M640.92,81.67a4.1,4.1,0,0,0,2.53-2.09,6.36,6.36,0,0,0-.09-4.34l-1.59-1a7.14,7.14,0,0,1,1.1,4.59A3.86,3.86,0,0,1,640.92,81.67Z" transform="translate(-581.21 -40)"/><path class="cls-3" d="M634.94,68.77s.78,2.19,2.34,2.49c2.16.43,4.24,1,7.66,4.12A2.19,2.19,0,0,0,646,73C645.77,71.85,638.75,66.32,634.94,68.77Z" transform="translate(-581.21 -40)"/><path class="cls-17" d="M674.17,87.21s-4,.9-7.59,1.72c0,0,5.68-2.44,6.86-2.34C673.89,86.63,674.17,87.21,674.17,87.21Z" transform="translate(-581.21 -40)"/><path class="cls-18" d="M667.24,263.83c.16-.24,3-4.64,2.25-6.75s-17.59-15.59-18.8-15.59-10.92,6.24-13.78,6.24-8.18-2.86-8.18-2.86-7,4.76-8.1,7c-1,2,2.74,4.66,3.44,5.12-.71-.41-4.48-2.68-4.48-4.09,0-.28-.06-1.88-.15-4.35C619,237.08,617.77,207,617.77,207a74.34,74.34,0,0,1,3.14-13.18c.17-.58.35-1.17.54-1.75.78-2.45,1.6-4.88,2.37-7.09.25-.73.5-1.44.74-2.12,1.12-3.15,2.07-5.66,2.53-6.87l.3-.78a5.32,5.32,0,0,1-1-2.34c0-.37.35-.65.79-.85a6.73,6.73,0,0,1,1.59-.45c0-1.9-7.28-26.5-7.28-26.5,0-3.12,1.51-11.87,1.51-11.87l.15,1.25s-.4,7.84-.4,8.8,6.32,8.22,10,8.22a17.13,17.13,0,0,0,3.73-.6A41.93,41.93,0,0,0,647,146.61h0a28.65,28.65,0,0,0,4.33-3.06,19,19,0,0,0,4-4.54c2.54-4.18,3.56-10.48,3.83-16,.07-1.33.1-2.6.08-3.79h0a32.43,32.43,0,0,0-.65-7.6s0,0,0,0c-.28-.75-.61-1.53-.92-2.23-.44-1-.84-1.79-1-2.09.17.27.58,1,1.11,1.86h0c.36.62.78,1.32,1.2,2.06h0c1.05,1.84,2.14,3.81,2.57,4.75.1.22.23.53.39.91.39.94,1,2.36,1.57,4.08h0c.75,2.06,1.59,4.55,2.38,7.22.11.35.21.71.31,1.07a55.23,55.23,0,0,1,2.46,14c0,1.19-3.55,7.94-3.55,9.37,0,1.27-3.42,27.07-4.19,36.2h0l0,.41c-.08,1-.12,1.68-.12,2.15,0,.8.31,3.12.82,6.44.19,1.24.41,2.62.65,4.11.14.82.28,1.68.43,2.57s.35,2.1.54,3.21l.49,2.85c.48,2.88,1,5.94,1.56,9.05l.42,2.38c.09.49.17,1,.26,1.48l.2,1.13c2.79,15.87,5.63,31.6,5.63,32.57C671.82,259,667.51,263.55,667.24,263.83Z" transform="translate(-581.21 -40)"/><path class="cls-19" d="M644.93,197.74c-7.19.1-17.28.23-24-3.91.17-.58.35-1.17.54-1.75,6.5,3.8,17.28,4.07,23.48,4.83A.42.42,0,0,1,644.93,197.74Z" transform="translate(-581.21 -40)"/><path class="cls-19" d="M650.11,190.27c-7.94,1.66-19.55-.15-26.27-5.28h0c.25-.73.5-1.44.74-2.12l1.7,1.22a1,1,0,0,1,.34.45,67.18,67.18,0,0,0,11.24,3.58c2.64.69,4.88.58,7.54.81,1.56.14,3.15.9,4.68,1C650.23,190,650.3,190.23,650.11,190.27Z" transform="translate(-581.21 -40)"/><path class="cls-19" d="M644.26,178.52c-3.85.19-7.58-.52-11.43-.83a13.91,13.91,0,0,1-4.21-.91.74.74,0,0,1-.39-.16,10.66,10.66,0,0,1-1.14-.62l.3-.78a5.32,5.32,0,0,1-1-2.34c0-.37.35-.65.79-.85l.09.1a27,27,0,0,0,2.4,1.82,1,1,0,0,1,.32,1.25c1.76.45,3.6.32,5.6.77,2.93.67,5.57,2.61,8.71,2.44C644.32,178.41,644.32,178.51,644.26,178.52Z" transform="translate(-581.21 -40)"/><path class="cls-19" d="M636.35,171.6c-1.06-.54-2.22-.72-3.31-1.18-1.28-.53-2.07-1.53-3.28-2.09a.58.58,0,0,1-.35-.37.59.59,0,0,1-.49-.2,1.89,1.89,0,0,1-.4-.92.52.52,0,0,1-.13-.49c0-.06.05-.14.07-.19a0,0,0,0,0,0,0l.8-1a0,0,0,0,0,0,0h0l.23-.3,0,0c.4-.33,1.05,0,.84.54a.06.06,0,0,1,.05,0c.12,0,.1.15,0,.23a.61.61,0,0,1,.09.16c.09.26.22.52.33.77a2.08,2.08,0,0,1,.48,1.12,18.48,18.48,0,0,0,2.66,2c1,.49,2,.42,2.82,1.26A.43.43,0,0,1,636.35,171.6Z" transform="translate(-581.21 -40)"/><path class="cls-19" d="M655.78,212.64c-.69.17-1.42.14-2.12.32-.52.13-1,.31-1.53.48-.35.11-.69.25-1,.37a4.36,4.36,0,0,0-1.22.45l-1.27.47a.13.13,0,0,0,.07.25,35.18,35.18,0,0,0,3.94-.78,11.77,11.77,0,0,0,1.76-.6c.51-.24.93-.65,1.43-.89C655.85,212.69,655.82,212.63,655.78,212.64Z" transform="translate(-581.21 -40)"/><path class="cls-19" d="M663.54,209.33c-.14.15-.27.29-.39.4a7,7,0,0,1-5.83,2.21,10.25,10.25,0,0,1-2.73.87c-.06,0-.12-.09,0-.12a12.89,12.89,0,0,0,5.39-4.16c.91-1.28,1.74-2.78,2.78-4C663,206,663.25,207.65,663.54,209.33Z" transform="translate(-581.21 -40)"/><path class="cls-19" d="M665.73,222a8.67,8.67,0,0,1-.79.43,1,1,0,0,1-.61.08c-2.59,1.77-5.53,3.43-8.53,3.35-.43,0-.55-.69-.11-.76,1.92-.36,3.68-1.94,5.33-2.88,1.45-.84,2.88-1.7,4.29-2.6Z" transform="translate(-581.21 -40)"/><path class="cls-19" d="M654.58,225.72c-4,.81-8.2.73-12.22,1.58-.18,0-.19.34,0,.37,4.34.61,8.16-.62,12.24-1.85A.05.05,0,0,0,654.58,225.72Z" transform="translate(-581.21 -40)"/><path class="cls-19" d="M662.29,201.93a18.89,18.89,0,0,1-3.91,1.71,5.52,5.52,0,0,1-2.35,1.19,5.45,5.45,0,0,1-2.45.28,4.91,4.91,0,0,1-2.31.58.19.19,0,0,1-.13-.32,7.85,7.85,0,0,1,2.12-1.08,3.74,3.74,0,0,1,.8-.4c.66-.33,1.3-.68,1.94-1.08a.36.36,0,0,1,.28-.05,15.62,15.62,0,0,0,3.38-2.65,29.14,29.14,0,0,1,2-2.29C661.83,199.06,662.05,200.44,662.29,201.93Z" transform="translate(-581.21 -40)"/><path class="cls-19" d="M639,224.09c-2.58-1.42-5.87-1.8-8.73-2.43s-5.28-1.91-8-2.54a.39.39,0,0,0-.21.76,19.8,19.8,0,0,1,2.2.89,5.87,5.87,0,0,0,4,3.36,29.26,29.26,0,0,0,3.24.25,10.83,10.83,0,0,0,3.59.09.4.4,0,0,0,.25-.24,14.8,14.8,0,0,0,3.62.21A.19.19,0,0,0,639,224.09Z" transform="translate(-581.21 -40)"/><path class="cls-19" d="M659.91,158.94c-2.76-1-6.07-.92-9-1.13s-5.5-1.11-8.34-1.33a.4.4,0,0,0-.1.79,22.3,22.3,0,0,1,2.31.55,5.85,5.85,0,0,0,4.45,2.74,27,27,0,0,0,3.23-.23,10.71,10.71,0,0,0,3.57-.44.37.37,0,0,0,.21-.27,14.8,14.8,0,0,0,3.61-.32A.19.19,0,0,0,659.91,158.94Z" transform="translate(-581.21 -40)"/><path class="cls-19" d="M657.29,234.25c-1.72,1.39-4,1.32-6.14,1.6a28.46,28.46,0,0,0-4.53,1,.36.36,0,0,0-.23-.08,60.59,60.59,0,0,1-8.3-.2c-2.93-.26-6.5-.06-9.2-1.25a.42.42,0,0,0-.5.66,5.22,5.22,0,0,0,2.37,1.36c.75.37,1.91.49,2.63.82s.31.31,1.37.62c2.76.8,5.74.3,8.53-.41a9.86,9.86,0,0,0,3-.65c3.77-.42,8.35-.77,11.14-3.33A.06.06,0,0,0,657.29,234.25Z" transform="translate(-581.21 -40)"/><path class="cls-19" d="M661,189.13a1.59,1.59,0,0,1-.78.48,4.62,4.62,0,0,1-1.53,0,10.42,10.42,0,0,0-1.11-.05s0,.05,0,.06a2.59,2.59,0,0,1-1.65.2c-.74,0-1.41-.21-2.15-.28a.05.05,0,0,1,0-.1l.56-.08c0-.06,0-.12.08-.13a19.8,19.8,0,0,0,5.53-1.9.68.68,0,0,1,.79.16v.08A13.36,13.36,0,0,0,661,189.13Z" transform="translate(-581.21 -40)"/><path class="cls-19" d="M660.82,187.34a0,0,0,0,0,0,.08A0,0,0,0,0,660.82,187.34Z" transform="translate(-581.21 -40)"/><path class="cls-19" d="M661.87,174.86c-.06.74-.15,1.62-.24,2.55l0,.41a2.19,2.19,0,0,1-1.42.21,6.35,6.35,0,0,1-2.14-.49,1.83,1.83,0,0,1-.6-.41c-2.33,0-4.9-1.28-6.93-2.59-1.14-.37-2.29-.82-3.49-1.32-.12-.06-.07-.25.07-.2.72.17,1.43.36,2.15.55,0-.2.11-.43.36-.34,1.35.47,2.76,1,4.15,1.4,2.54.36,4.79-.16,7.4-.58a.41.41,0,0,1,.31.09.23.23,0,0,1,.28.15,2.11,2.11,0,0,1,.12.51Z" transform="translate(-581.21 -40)"/><path class="cls-19" d="M663.56,120.94h0A28.59,28.59,0,0,1,661,122.2c-.59.28-1.18.55-1.78.8.07-1.33.1-2.6.08-3.79h0c.87-.79,1.76-1.63,2.71-2.34C662.38,117.8,662.94,119.22,663.56,120.94Z" transform="translate(-581.21 -40)"/><path class="cls-19" d="M659,111.19h0l-.41.38c-.28-.75-.61-1.53-.92-2.23a2.53,2.53,0,0,1,.13-.22C658.19,109.75,658.61,110.45,659,111.19Z" transform="translate(-581.21 -40)"/><path class="cls-19" d="M645.32,137.59a0,0,0,0,0,0,0Z" transform="translate(-581.21 -40)"/><path class="cls-19" d="M663.92,141.27l0,.32c-5,1.64-11.19,4.69-16.84,5a28.65,28.65,0,0,0,4.33-3.06c1.93-.62,3.76-1.5,5.86-1.23l.12.05A22.25,22.25,0,0,1,663.92,141.27Z" transform="translate(-581.21 -40)"/><path class="cls-19" d="M666.25,129.24a6.05,6.05,0,0,1-1.67.43,6.27,6.27,0,0,1-2.92,0,.33.33,0,0,1,0-.63,7.64,7.64,0,0,1,1.44-.28.14.14,0,0,1,.1-.08c.33,0,.67-.07,1-.08l.25-.05c.47-.1,1-.33,1.48-.39C666.05,128.52,666.15,128.88,666.25,129.24Z" transform="translate(-581.21 -40)"/><path class="cls-19" d="M648.9,186.08l-2.39-.18c-.2,0-.2.31,0,.31l2.39.09A.11.11,0,0,0,648.9,186.08Z" transform="translate(-581.21 -40)"/><path class="cls-19" d="M654.11,196.89a12.11,12.11,0,0,0-3.26,1.36,12.84,12.84,0,0,0-2.94,1.92.27.27,0,0,0,.26.44,15.43,15.43,0,0,0,3.22-1.43,14.28,14.28,0,0,0,3-1.85C654.58,197.15,654.35,196.84,654.11,196.89Z" transform="translate(-581.21 -40)"/><path class="cls-19" d="M630.84,215.59a17.83,17.83,0,0,1-3.28-1.88c-1.17-.67-2.4-1.2-3.51-2h0c-.22-1.64-.37-2.78-.44-3.14a5.38,5.38,0,0,0-.4-1.13,9.17,9.17,0,0,1,1.62,1.22,3.85,3.85,0,0,0,2.07.22s.06.06,0,.07a3.78,3.78,0,0,1-1.89-.1c.61.55,1.18,1.12,1.76,1.61.93.77,2.53,1.56,3.26,2.64a5.2,5.2,0,0,1,1.5,1.53A.63.63,0,0,1,630.84,215.59Z" transform="translate(-581.21 -40)"/><path class="cls-5" d="M666.19,224.6l-6-1.87L659,245.63l-4.52-7.14s-.37-20.11-2.34-27.45-11.95-20.17-11.95-20.17-17.34,8.63-19.06,16.61,0,39.33,0,39.33l-1.72,1.76C619,237.08,617.77,207,617.77,207a74.34,74.34,0,0,1,3.14-13.18c.17-.58.35-1.17.54-1.75.78-2.45,1.6-4.88,2.37-7.09.25-.73.5-1.44.74-2.12,1.12-3.15,2.07-5.66,2.53-6.87l.3-.78a5.32,5.32,0,0,1-1-2.34c0-.37.35-.65.79-.85a6.73,6.73,0,0,1,1.59-.45c0-1.9-7.28-26.5-7.28-26.5,0-3.12,1.51-11.87,1.51-11.87l.15,1.25s-.4,7.84-.4,8.8,6.32,8.22,10,8.22a17.13,17.13,0,0,0,3.73-.6s6.62,27.67,8.33,31.21,18.33,25,18.33,25l.11.63.49,2.85L666,223.47Z" transform="translate(-581.21 -40)"/><path class="cls-5" d="M668.71,143.23s-4.32,2.89-16.32,2l-3.52,3.18s11,2.13,16.93,2.13Z" transform="translate(-581.21 -40)"/><path class="cls-20" d="M624.18,257.08s-6.21,1.38-7.59,0l3.43-.58a3.65,3.65,0,0,1-3.43-3.66c0-3.42,12.89-12.86,12.89-12.86l-.75,2.18a40.29,40.29,0,0,0,5.7,2.67c3,1.13,14.58-6.06,17.16-6.86a25.16,25.16,0,0,1,4.07-1l-2.39,1,10.62,9.1h-1.8s9.42,7.83,10.59,10.55l1.16,2.73-1.42-1.79s-3.21,4.52-4.92,5.21l0-.47s2.23-4.12,1.86-5.93-4.5-4.78-4.5-4.78l.62,1s-6.4-5.73-9.08-8.42S651.48,242,651,242s-9.75,5.3-12.7,6.1l.43-.63s-2.92,1-4.75.33-4-2.7-5.79-2-7.67,5.88-7.67,7.17S624.18,257.08,624.18,257.08Z" transform="translate(-581.21 -40)"/><path class="cls-2" d="M673.37,92.42a36.78,36.78,0,0,1,.91,7.82c0,1,0,2-.12,3l-.6-1.16a45.48,45.48,0,0,1-3.27,6.69s-9.17-3.64-15.51-8.71A30.52,30.52,0,0,1,646,89l-1.36,1.18S646.58,77.86,647,74.1l1.54.53s2.36,10.16,9.22,13.23a71.26,71.26,0,0,1,15-4.19l2.47,1.83h-1.6l-.86,1s-3.67-.39-5.47,1.41c0,0,.06,4.76,1,6.91l.54-1.69S670.84,94.94,673.37,92.42Z" transform="translate(-581.21 -40)"/><path class="cls-5" d="M629.48,131.61s3.71,20.32,2.5,31.54-2.5,19-2.5,19a70.79,70.79,0,0,0,15.34,23c9.42,9.42,19.07,11,19.07,11l-3.25-15.07s-19.83-23.95-21.54-31.38S629.48,131.61,629.48,131.61Z" transform="translate(-581.21 -40)"/><path class="cls-21" d="M725.4,164.75a.62.62,0,0,1-.3.18c-.84.06-7.43-.32-7.43-.32l-3.72-4s0-.32-.06-.85a84.11,84.11,0,0,1-.39-9.32.06.06,0,0,0,0,0,1.24,1.24,0,0,1,.16-.67c.45-.51,6.7-4.76,10.16-6.89h0a11.85,11.85,0,0,1,2.2-1.18,6.7,6.7,0,0,0,2.11-.54h0a2.29,2.29,0,0,0,.81-.54c.54-.62,10.15-7.59,11.83-7.7.11,0,.18.07.2.21.31,2-7.74,18.3-8.59,20.73S726.82,163.52,725.4,164.75Z" transform="translate(-581.21 -40)"/><path class="cls-2" d="M581.21,309.48,713.67,159.92l5.8,3.68L700.65,184l-32.84,32.53-82,96.94S581.4,312.2,581.21,309.48Z" transform="translate(-581.21 -40)"/><path class="cls-2" d="M713.67,159.92s9.63-8.23,10.31-9,2.57,1.5,2.57,1.5l-7.08,11.19Z" transform="translate(-581.21 -40)"/><path class="cls-22" d="M725.4,164.75l-.3.18-1.23-2.83s4.74-6.83,4.66-8.12,1.55-5.83,2.88-7.35,2.59-3.31,2.55-3.9-.49-3.07.23-3.9,6.62-6,6.62-6l.2.21c.31,2-7.74,18.3-8.59,20.73S726.82,163.52,725.4,164.75Z" transform="translate(-581.21 -40)"/><path class="cls-23" d="M718.93,155.39l-5,4.34-.22.19s-.58-6.76-.17-9.51a.06.06,0,0,0,0,0,3.3,3.3,0,0,1,.16-.67c.45-.51,6.7-4.76,10.16-6.89h0l2.2-1.18,2.11-.54c-.4.29-6.9,4.91-7.72,5.84s-2.24,6.1-2.24,6.1Z" transform="translate(-581.21 -40)"/><path class="cls-18" d="M711.37,162.52s.18-3.33.73-4S731.31,156,731.31,156a2.8,2.8,0,0,1-1.29,2.21C729.3,158.61,711.37,162.52,711.37,162.52Z" transform="translate(-581.21 -40)"/><path class="cls-18" d="M716.41,166.92s3.47.31,4.52-.88-1.06-20.69-1.06-20.69-.53-.6-1.49.5,0,14.67.18,16.63S716.41,166.92,716.41,166.92Z" transform="translate(-581.21 -40)"/><path class="cls-20" d="M656.66,107.14a13,13,0,0,1,4.5-1l-1.69,1s1.85,3.74,2.54,14.8-3.22,18.12-3.22,18.12v-1.31s-7,10.25-14.78,13.19a35.9,35.9,0,0,1-14.53,2.31l1.34-.81s-7.09-4.78-10.12-7.81.75-10.88.75-10.88l-3.09.69,4.67-1.66s-.32,8.1-.32,9.48,7.87,8.22,10,8.22,17.56-5.73,22.31-13.17S660,116.53,656.66,107.14Z" transform="translate(-581.21 -40)"/><path class="cls-4" d="M677.8,214.12c-.88.88-2,1.21-2.73,1.95s-1,2.51-1.6,3.11a11.17,11.17,0,0,1-3.19,1.14c-.33,0-1.08.81-1.6.81s-2.27-.22-2.63-.22-1.91.87-3,.55-4.54-7.59-6.67-14.94-17.58-16.83-22.22-31.12c0,0,.82-19.1-2.17-31.58s-3.24-17-3.24-23.52,5.41-19.84,5.41-19.84,10.92.63,14.3,6.68c.19.35.37.7.54,1.07h0c2.83,6,2.77,14.57,1.79,19.88-1,5.63-3.11,30-1.64,35.86a70.89,70.89,0,0,1,4.76,12.13c2.17,7.27,5.65,18.93,7.8,21.08a6.47,6.47,0,0,0,2.2,1.26c2.6,1,6.35,1.58,8.16,2.43a2.76,2.76,0,0,1,.81.52,10.07,10.07,0,0,1,1.94,2.42L673,205.89l2.2,3.36,2.79-2.77S678.68,213.24,677.8,214.12Z" transform="translate(-581.21 -40)"/><path class="cls-14" d="M674.28,100.24c0,1,0,2-.12,3l-.6-1.16a45.48,45.48,0,0,1-3.27,6.69s-9.17-3.64-15.51-8.71A30.52,30.52,0,0,1,646,89l-1.36,1.18S646.58,77.86,647,74.1c0,0-.58,11,2.08,16.11V87.76s4.18,9.57,11.51,13.91l1.74-6s2.43,6.51,4.49,9.5a12.1,12.1,0,0,0,6-2.84A8.15,8.15,0,0,0,674.28,100.24Z" transform="translate(-581.21 -40)"/><path class="cls-14" d="M667.32,87.86,664,90.21a12.28,12.28,0,0,1,3.29-3.37c1.78-1,5.13-.81,5.13-.81l1.21-.9,1.59.37h-1.59l-.87,1A26.26,26.26,0,0,0,667.32,87.86Z" transform="translate(-581.21 -40)"/><path class="cls-24" d="M677.8,214.12c-.88.88-2,1.21-2.73,1.95s-1,2.51-1.6,3.11a11.17,11.17,0,0,1-3.19,1.14c-.33,0-1.08.81-1.6.81s-2.27-.22-2.63-.22-1.91.87-3,.55-4.54-7.59-6.67-14.94-17.58-16.83-22.22-31.12c0,0,.82-19.1-2.17-31.58s-3.24-17-3.24-23.52,5.41-19.84,5.41-19.84,10.92.63,14.3,6.68c.19.35.37.7.54,1.07h0a20.74,20.74,0,0,0-14.68,11.55c-5,10.27,1.21,34.06,4.15,48.39,0,0,11,26.4,16.29,29s9.15,1.27,9.15,1.27c2.6,1,6.35,1.58,8.16,2.43-.57,2.06-1.17,5.21-.23,7.39C673.34,211.75,677.8,214.12,677.8,214.12Z" transform="translate(-581.21 -40)"/><path class="cls-5" d="M684.08,360.38a29.77,29.77,0,0,1-9.22-2.15c-3-1.17-16.12.85-17.68-.71,0,0,8.66-3.85,13.25-3.27S679.73,359.59,684.08,360.38Z" transform="translate(-581.21 -40)"/><path class="cls-3" d="M637.65,368.77a6.25,6.25,0,0,0-1.1-2l1.92,1.77Z" transform="translate(-581.21 -40)"/><path class="cls-3" d="M643.36,368.77a7.88,7.88,0,0,0-1.35-2.56l2.69,2Z" transform="translate(-581.21 -40)"/><path class="cls-3" d="M647,365.15s-1-1.55-1.3-1.82a23.81,23.81,0,0,0-3-1.25,28.15,28.15,0,0,1,5.33,1.54,12,12,0,0,0,3.64,1A9.39,9.39,0,0,1,647,365.15Z" transform="translate(-581.21 -40)"/></g></g></svg>