<svg xmlns="http://www.w3.org/2000/svg" viewBox="0 0 106.06 234.99"><defs><style>.cls-1{isolation:isolate;}.cls-2{fill:#ffa765;}.cls-3{fill:#f38855;}.cls-4{fill:#e57d58;}.cls-5{fill:#792c1d;}.cls-17,.cls-6{fill:#6c1d08;mix-blend-mode:multiply;}.cls-6{opacity:0.29;}.cls-7{fill:#3f1b08;}.cls-8{fill:#ffead7;}.cls-9{fill:#d87258;}.cls-10{fill:#b05658;}.cls-11{fill:#814a3b;}.cls-12{fill:#fff;}.cls-13{fill:#8b3c2c;}.cls-14{fill:#b45a47;}.cls-15{fill:#ce6a58;}.cls-16{fill:#84301f;}.cls-17{opacity:0.15;}.cls-18{fill:#ffb176;}</style></defs><title>stage2</title><g class="cls-1"><g id="evolution"><path class="cls-2" d="M292.78,361.77a24.5,24.5,0,0,1-2.9.9s-.05,1.58-.41,1.79c-.88.52-2.74.88-3.49,1.63s-6.45,1.41-12.47,1.59c-.92,0-1.85.05-2.77.05-6.91,0-15.14-1.08-15.8-1.75s0-5.09,0-5.09l1.81-3.3,1.41-.38a36,36,0,0,0,3.86,1.85,19.14,19.14,0,0,0,3.5.58c3,.32,6.81.53,8.29.53,2.29,0,12.62-2.67,13.79-2.33S293,361.59,292.78,361.77Z" transform="translate(-213.28 -132.74)"/><path class="cls-3" d="M289.89,362.67a17.69,17.69,0,0,0-2-1.62c-.87-.49-4.25-.71-4.25-.71h5c.58,0,2.67,1.93,2.67,1.93Z" transform="translate(-213.28 -132.74)"/><path class="cls-3" d="M287.84,365.13s-2.84-1.36-3.16-1.05,1.58,1.77,1.58,1.77Z" transform="translate(-213.28 -132.74)"/><path class="cls-3" d="M273.51,367.68c-.92,0-1.85.05-2.77.05-6.91,0-15.14-1.08-15.8-1.75s0-5.09,0-5.09l1.81-3.3,1.41-.38a36,36,0,0,0,3.86,1.85,19.14,19.14,0,0,0,3.5.58s-3.88-.11-3.6,2.32C262.26,364.94,271.83,367.33,273.51,367.68Z" transform="translate(-213.28 -132.74)"/><path class="cls-4" d="M219,343.28s-5.72,3.74-5.72,4.65,6.21,8.49,8.54,11.95a14,14,0,0,0,7.33,5.37c1.7.58,11,.4,11.36,0s.5-1.79.5-1.79,2.21-1.29,2.21-1.75a5.17,5.17,0,0,0-.71-2.25c-.35-.35-5.91.3-7.33-.45s-9.49-10-9.86-12a12.47,12.47,0,0,0-1.17-3.34l-3.79-.92Z" transform="translate(-213.28 -132.74)"/><path class="cls-5" d="M262.54,310.63c-1.1,2.83-2.87,6.78-4.83,10.69a79.34,79.34,0,0,1-6.77,11.58,10.17,10.17,0,0,1-1.77,1.87c-1.69,1.27-7,3.83-12.07,6.17-4.39,2-8.58,3.84-10.15,4.53l-.4.17-.22.09h0s1.75,3.81,1.18,3.81-2.56-3.12-2.56-3.12.25,4.38-1.31,4.38-3.75-7.37-3.75-7.37-3.68-.62-3.68-1,3.65-.16,4.37-.88,12.92-16.11,14.42-20.11,3.8-28.71,3.8-28.71S265.32,303.47,262.54,310.63Z" transform="translate(-213.28 -132.74)"/><path class="cls-6" d="M257.71,312.34v9a79.34,79.34,0,0,1-6.77,11.58s-8-15.77-9-15.77-4.05,23-4.86,23.81-7.93,3.64-10.15,4.53l-.4.17-.22.09h0l-5.75-4.18c.72-.71,12.92-16.11,14.42-20.11s3.8-28.71,3.8-28.71Z" transform="translate(-213.28 -132.74)"/><path class="cls-2" d="M318.78,175.87a27.33,27.33,0,0,1-6.52,6.48h0A31.18,31.18,0,0,1,298.1,188s-10.29-4.69-15.67-8.94a11.83,11.83,0,0,1-3.61-4.95l0-.1-.42-1.22a17.89,17.89,0,0,1-.74-5.78l3.25-21.3L291,144.54l22.44,8.63s-.06.35-.15.92l-.31,2c-.46,2.81-1.08,6.72-1.08,7,0,.47,3.66,7.32,4.9,11.5Z" transform="translate(-213.28 -132.74)"/><path class="cls-3" d="M294.05,163.81s-6.37,8.06,0,14.42,18.21,4.12,18.21,4.12h0A31.18,31.18,0,0,1,298.1,188s-10.29-4.69-15.67-8.94a11.83,11.83,0,0,1-3.61-4.95l0-.1-.42-1.22,7.7-12V146s3.86,1.56,7.18,3.06,20,5.05,20,5.05l-.31,2-5,.35s-2.35,8.91-5.26,9.66S294.05,163.81,294.05,163.81Z" transform="translate(-213.28 -132.74)"/><path class="cls-3" d="M290.4,285.3s1.77,3.38,2.65,5.39c.8,1.81,1.15,8.29,1.15,8.29s-2.81-5.89-2.81-6.24S290.4,285.3,290.4,285.3Z" transform="translate(-213.28 -132.74)"/><path class="cls-3" d="M299.3,294.1s.93,3.09,1.65,5a11.65,11.65,0,0,1,.72,4.07c0,.42-1.19,3.2-1.19,4.58s.69,3.36,1.19,3.56,2.83-5.32,3.41-8.14S303.21,291,303.21,291Z" transform="translate(-213.28 -132.74)"/><path class="cls-2" d="M298.76,282.74s-3.4,6.82-3.4,8.2,1.7,6.95,1.7,9.41-.05,5.37.53,5.95,3.66-2.25,3.66-4-1.29-5.16-1.29-6.62,1.29-2.94,1.67-2.94,1.83,6,2.2,8.81-1.66,8.33-1.66,9.95.42,2.58.79,2.58,5.33-8.72,5.75-10.91-.8-13-1.92-16.35a41.53,41.53,0,0,0-3.93-7.71l-.78-.56Z" transform="translate(-213.28 -132.74)"/><path class="cls-2" d="M282.62,283.67a68.51,68.51,0,0,0,0,11.87c.63,4.93.89,13.24.89,13.24s-2.95,4.68-2.95,6.93.47,2.31.69,2.31a9.63,9.63,0,0,0,1.56-1.22s1.56-.53,2.56-.9,5.87-5.59,5.87-5.59-.81,6.18-.81,6.8.84.72,1.31.25a67.9,67.9,0,0,0,3.62-10.27,44.19,44.19,0,0,0-1.25-8.49c-1-4.19-3.36-13.74-4.55-14.93s-6.81-2.56-6.81-2.56Z" transform="translate(-213.28 -132.74)"/><path class="cls-5" d="M306.41,279.87c0,.56-3.56-.76-3.56-.76s-3.74,4.69-5.05,4.69.25-4.62.25-4.62-17.86-16.43-21.85-28.05c0,0-5.94-22.91-7.65-29.37a.36.36,0,0,1,0-.1c-1.56-6.4,10.81-8.87,10.81-8.87s.12.49.34,1.33h0c.42,1.61,1.18,4.52,2.07,7.77h0c1.36,4.89,3,10.57,4.25,13.74,1.32,3.35,5.93,15,10,25.24l6.89,17.32v0S306.41,279.3,306.41,279.87Z" transform="translate(-213.28 -132.74)"/><path class="cls-5" d="M292.63,185.32s-5.33,1.88-7.4,2.69a2.88,2.88,0,0,0-1.37,1.36c-2.93,5.07-2.89,20.8-2.72,27,0,0-16.48,21.65-21.14,29.65a30.71,30.71,0,0,0-3.84,16.65,27.39,27.39,0,0,1-23.72,12.82s-1.09-36,3.41-58.11,30.3-52.11,30.3-52.11L277.6,174h0Z" transform="translate(-213.28 -132.74)"/><path class="cls-7" d="M307.93,166.63s2.82,1.72,3.71.83c0,0,.48-.23,1.79.47a5.15,5.15,0,0,0-2.35-1.64A4.33,4.33,0,0,0,307.93,166.63Z" transform="translate(-213.28 -132.74)"/><path class="cls-8" d="M303.34,159s-1.47-.15-2.12-.15A41.84,41.84,0,0,0,296,161s2.58,2.75,4.47,2.75a3.59,3.59,0,0,0,2.85-1.38,23.41,23.41,0,0,0,.88-2.91C304.22,159,303.34,159,303.34,159Z" transform="translate(-213.28 -132.74)"/><path class="cls-9" d="M304.27,158.42s-3.55-2.54-4.21-2.36c-1.79.47-4.21,4.31-4.21,5.1A12.31,12.31,0,0,1,304.27,158.42Z" transform="translate(-213.28 -132.74)"/><path class="cls-10" d="M297.12,162s2.21,1.46,3.62,1.46a4.85,4.85,0,0,0,2.6-1.07s-1.27,1.75-2.85,1.75C299.29,164.13,297.12,162,297.12,162Z" transform="translate(-213.28 -132.74)"/><path class="cls-11" d="M300.06,159.19s.43,3.83,1.77,3.87c2.12.06,2.44-3.09,2.44-4.18C304.27,158.88,301.87,157.77,300.06,159.19Z" transform="translate(-213.28 -132.74)"/><path class="cls-7" d="M295.85,161.16s5.25-2.58,9.28-2.25a5,5,0,0,0-2.68-.85C299.14,158.36,295.85,161.16,295.85,161.16Z" transform="translate(-213.28 -132.74)"/><path class="cls-10" d="M295.85,161.16a19.45,19.45,0,0,1,2.81-4.23A6,6,0,0,0,295.85,161.16Z" transform="translate(-213.28 -132.74)"/><path class="cls-12" d="M300.87,161.29c0,.15-.29.28-.64.28s-.64-.13-.64-.28.29-.28.64-.28S300.87,161.13,300.87,161.29Z" transform="translate(-213.28 -132.74)"/><path class="cls-6" d="M302.91,278.24l-4.86.94s-17.86-16.43-21.85-28.05c0,0-5.94-22.91-7.65-29.37a.36.36,0,0,1,0-.1l11.15-7.53c.42,1.61,1.18,4.52,2.07,7.77h0c-.12.54-3.39,9.37-3.39,17.49,0,3.87,7.79,13.22,12,17.49a21,21,0,0,0,5.61,4l6.89,17.32Z" transform="translate(-213.28 -132.74)"/><path class="cls-6" d="M292.63,185.32s-5.33,1.88-7.4,2.69a2.88,2.88,0,0,0-1.37,1.36h0s-8.06-12.9-15.3-12.9c0,0,7-2.53,9.05-2.53h0Z" transform="translate(-213.28 -132.74)"/><path class="cls-13" d="M314.16,168.58s-.8.07-1.1-.19a6.41,6.41,0,0,0-2.8-1.68,5.64,5.64,0,0,0-3.3.2,1.64,1.64,0,0,1-1.38-1.6l.07,0a13.72,13.72,0,0,1,9.12-1.52h.05C315.32,165.59,314.16,168.58,314.16,168.58Z" transform="translate(-213.28 -132.74)"/><path class="cls-14" d="M314.82,163.76s-.64,1.3-3.88.8a8.79,8.79,0,0,0-5.29.71,13.72,13.72,0,0,1,9.12-1.52Z" transform="translate(-213.28 -132.74)"/><path class="cls-14" d="M317.36,174.62l1.42,1.25a48.8,48.8,0,0,0-12.7-.63A37.92,37.92,0,0,1,317.36,174.62Z" transform="translate(-213.28 -132.74)"/><path class="cls-13" d="M313.43,153.17a31.56,31.56,0,0,1-13.28-.25c-5.62-1.43-11.1-5.15-13-5.15,0,0,2.33,10.2,6.33,17.5,0,0-8.69.46-10.41,5.56-2.36,7,6.78,12,7.75,12.56-1-.53-11.68-5.16-17.11-5.16l3.36-3.4s-10.63,1.42-12.61,3.4c0,0-.59-6.48,6.75-13.83,0,0-2.78-5.64-4.24-9.62a12.2,12.2,0,0,1-.89-3.3c0-3.66,2-8.16,4.73-11.82,2.44-3.29,5.5-5.91,8.26-6.67,4.59-1.27,22.48,1.79,33.16,18.21C312.64,151.84,313,152.49,313.43,153.17Z" transform="translate(-213.28 -132.74)"/><path class="cls-6" d="M283.06,158.32l-9.3,4.07-6.8-7.61a12.2,12.2,0,0,1-.89-3.3c0-3.66,2-8.16,4.73-11.82C270.8,139.66,272.44,153.8,283.06,158.32Z" transform="translate(-213.28 -132.74)"/><path class="cls-4" d="M278.37,160.27s-3.89-9.76-9.45-11.64-10.74,3.06-10.74,8.79c0,4.88,5.26,11.62,10.55,10.94,3.71-.47,4.61-3.18,6.85-5.42C277,161.47,278.37,160.27,278.37,160.27Z" transform="translate(-213.28 -132.74)"/><path class="cls-15" d="M274.54,161.13s-2.62-5.53-5.93-7.26-7.52,1.28-7.52,1.28a19.68,19.68,0,0,1,7,1.61A23.16,23.16,0,0,1,274.54,161.13Z" transform="translate(-213.28 -132.74)"/><path class="cls-15" d="M266.15,163.76a6.26,6.26,0,0,0,4.08-1.07,6,6,0,0,0,2-4.32l-1.44-1.61a6.35,6.35,0,0,1-.88,5A5.33,5.33,0,0,1,266.15,163.76Z" transform="translate(-213.28 -132.74)"/><path class="cls-3" d="M265.15,148.68s-.11,2.46,1.62,3.38c2.41,1.27,4.67,2.63,7.29,7.07a2.74,2.74,0,0,0,2.37-1.9C276.77,156,270.94,147.76,265.15,148.68Z" transform="translate(-213.28 -132.74)"/><path class="cls-16" d="M283.06,158.32s-18.13,3.65-19.67,20.39l4.43-2S273.07,163.29,283.06,158.32Z" transform="translate(-213.28 -132.74)"/><path class="cls-4" d="M281.48,200.89a37,37,0,0,0-13.21.78c-6.94,1.76-15.1,19.31-15.1,29.08s-1,28.05,1.54,33.38,9.13,16.27,9.13,16.27S262.16,257.84,260,246c0,0,18.25-21.55,21.14-29.65C281.14,216.37,281.48,209.34,281.48,200.89Z" transform="translate(-213.28 -132.74)"/><path class="cls-6" d="M249.34,206.55l5.22,1.81,6.4,21.77.25,23.88s-6.59-16.34-8-22.22,0-22,0-22Z" transform="translate(-213.28 -132.74)"/><path class="cls-13" d="M292.64,283.61c0,1.25-4,0-4,0s-2.37,3.2-3.87,3.2-1.33-3.66-1.33-3.66l-3.41,2.09,2.07-2.76s-15.05-14.47-19.6-23.3c0,0-1.26,2.45-2.13,1.57s-.07-4.36,0-4.64l-.06.05c-.17.2-.62.86-1.12.7a.8.8,0,0,1-.29-.19c-.57-.56-2.1-7.37-2.1-7.37a174.83,174.83,0,0,0-1.55-23.76c-.05-.32-.11-.63-.17-.95a6.63,6.63,0,0,0-.18-.77c-.1-.41-.22-.79-.33-1.18-1.57-5.12-4.76-9.86-4.76-10.8,0-2.5,6.65-31,14.6-33.61,1.46-.48,5.09,3.38,6.79,16.34,2,15.08-.62,27.51,1,36.18a205.32,205.32,0,0,0,5.4,20.09l.09.29c4.11,13.29,9,27.22,9.95,29.89l.07.23.09.23S292.64,282.36,292.64,283.61Z" transform="translate(-213.28 -132.74)"/><path class="cls-13" d="M275.15,326.36a4,4,0,0,1-2.44,0c-1.94,10.05-11.43,29.78-12,31l0,.06s2,1.42,1.17,2.25-4.75-1.5-4.75-1.5-4,5.54-4.74,4.83,2.32-7.24,2.32-7.24-.83-22.82-3.82-33.31-18.4-42.21-18.4-47,6.41-32.22,10.15-32.22c.74,0,2.27,1.91,4.27,5h0c5.41,8.47,14.22,25.87,20,38.51a108.49,108.49,0,0,1,8.7,35.12C275.66,324.53,275.51,326.16,275.15,326.36Z" transform="translate(-213.28 -132.74)"/><path class="cls-13" d="M286,180.35s7.66,5.68,9.85,8.73c2.35,3.27,2.35,4.59,2.35,4.59l.42-3.63,3.52,3.77s-1-5.15-5.34-7.62C293.9,184.55,286,180.35,286,180.35Z" transform="translate(-213.28 -132.74)"/><path class="cls-13" d="M302.17,153.33s8.71-1.46,12.78-3l-1.15,1.59a13.52,13.52,0,0,0,5.54.37s-6.74,2.41-10.36,2.41A19.1,19.1,0,0,1,302.17,153.33Z" transform="translate(-213.28 -132.74)"/><path class="cls-8" d="M308.48,164.49c0,.55,2,.51,2.46.07S308.48,163.9,308.48,164.49Z" transform="translate(-213.28 -132.74)"/><path class="cls-14" d="M312.22,151.2s-11.67.52-21.23-6.66S279.06,133,279.06,133C283.65,131.72,301.54,134.78,312.22,151.2Z" transform="translate(-213.28 -132.74)"/><path class="cls-17" d="M287.81,281.48a14.68,14.68,0,0,1-5.67,1s-15.05-14.47-19.6-23.3c0,0-1.26,2.45-2.13,1.57s-.07-4.36,0-4.64l-.06.05c-.16.09-.61.4-1.12.7a.8.8,0,0,1-.29-.19c-.57-.56-2.1-7.37-2.1-7.37a174.83,174.83,0,0,0-1.55-23.76c-.05-.32-.11-.64-.17-.95a6.63,6.63,0,0,0-.18-.77c-1.24-5.24-4.19-9.25-5.09-12,.25.61,8.93,6.88,10.74,16.19,1.86,9.61,1.63,16.88,3.85,21.76s13.18,1.05,13.18,1.05l.09.29L287.65,281l.07.23Z" transform="translate(-213.28 -132.74)"/><path class="cls-17" d="M275.15,326.36a4,4,0,0,1-2.44,0c-1.94,10.05-11.43,29.78-12,31l0,.06-6-1.66s-.83-22.82-3.82-33.31-18.4-42.21-18.4-47,6.41-32.22,10.15-32.22c.74,0,2.27,1.91,4.27,5h0c-.1.57-3.69,21.84,2.48,38.51,6.24,16.91,17.86,34.15,20.6,35a14.42,14.42,0,0,0,5.58.16C275.66,324.53,275.51,326.16,275.15,326.36Z" transform="translate(-213.28 -132.74)"/><path class="cls-5" d="M253,236.2s1.86,8.1,3,9.27c0,0-1.72-.62-3.49-3.61a46.69,46.69,0,0,1,2.77,6.25c1.27,3.54,1.53,4.28,1.53,4.28a43.78,43.78,0,0,0-3.21-3.49c-2.2-2.2-3.78-7-3.78-7Z" transform="translate(-213.28 -132.74)"/><path class="cls-5" d="M271.18,201.08s5.6.49,7.88,4.91a6.59,6.59,0,0,0,2.42-5.1c0-3.33-5.15-6-5.15-6Z" transform="translate(-213.28 -132.74)"/><path class="cls-3" d="M282.81,316.8s3.72-5.56,4-6.49a56.58,56.58,0,0,0,.68-5.81s-.31,5.53-.31,6.15S285,314.8,285,314.8a12.23,12.23,0,0,0,1.82-1.06l1.53-1.56-2.94,3.72Z" transform="translate(-213.28 -132.74)"/><path class="cls-6" d="M241,363.46a18.61,18.61,0,0,0-1.08-2.12,9.35,9.35,0,0,0-2.54,0s3-.38,3.62-.38,1.5,1.51,1.5,1.51Z" transform="translate(-213.28 -132.74)"/><path class="cls-18" d="M290.61,285.86s-5.05,5.13-5.05,6.28v14c0,.7,1.69,1.37,1.69,1.37s1.1,1.5,1.39,1.79,6.22-1.73,6.72-2.23S292.42,289.08,290.61,285.86Z" transform="translate(-213.28 -132.74)"/><path class="cls-13" d="M267,180a47.14,47.14,0,0,1,5.24,11.39l-1.75-1Z" transform="translate(-213.28 -132.74)"/><path class="cls-13" d="M294.61,166.06l-3.07,2.45s-.5-4,1-5Z" transform="translate(-213.28 -132.74)"/></g></g></svg>