<svg width="117" height="495" viewBox="0 0 117 495" fill="none" xmlns="http://www.w3.org/2000/svg">
<path d="M22.464 40.224C22.464 33.12 23.936 26.72 26.88 21.024C29.888 15.328 34.048 10.848 39.36 7.584C44.736 4.384 50.816 2.784 57.6 2.784C64.384 2.784 70.432 4.384 75.744 7.584C81.12 10.848 85.28 15.328 88.224 21.024C91.232 26.72 92.736 33.12 92.736 40.224C92.736 46.752 91.584 52.576 89.28 57.696C86.976 62.816 83.648 67.04 79.296 70.368L66.528 56.064C71.776 51.904 74.4 47.008 74.4 41.376C74.4 36.64 72.864 32.832 69.792 29.952C66.784 27.072 62.72 25.632 57.6 25.632C52.48 25.632 48.384 27.072 45.312 29.952C42.304 32.832 40.8 36.64 40.8 41.376C40.8 47.008 43.424 51.904 48.672 56.064L35.904 70.368C31.552 67.04 28.224 62.816 25.92 57.696C23.616 52.576 22.464 46.752 22.464 40.224Z" fill="#080918"/>
<path d="M26.88 21.024L25.9957 20.557L25.9916 20.5648L26.88 21.024ZM39.36 7.584L38.8485 6.72462L38.8365 6.73199L39.36 7.584ZM75.744 7.584L76.263 6.72921L76.26 6.72742L75.744 7.584ZM88.224 21.024L87.3356 21.4832L87.3397 21.491L88.224 21.024ZM89.28 57.696L88.3681 57.2856H88.3681L89.28 57.696ZM79.296 70.368L78.55 71.0339L79.1672 71.7254L79.9035 71.1624L79.296 70.368ZM66.528 56.064L65.9068 55.2803L65.0759 55.939L65.782 56.7299L66.528 56.064ZM69.792 29.952L69.1004 30.6743L69.1081 30.6815L69.792 29.952ZM45.312 29.952L44.628 29.2224L44.6204 29.2297L45.312 29.952ZM48.672 56.064L49.418 56.7299L50.1241 55.939L49.2932 55.2803L48.672 56.064ZM35.904 70.368L35.2965 71.1624L36.0328 71.7254L36.65 71.0339L35.904 70.368ZM25.92 57.696L26.8319 57.2856L25.92 57.696ZM23.464 40.224C23.464 33.2623 24.9054 27.0224 27.7684 21.4832L25.9916 20.5648C22.9666 26.4176 21.464 32.9778 21.464 40.224H23.464ZM27.7643 21.491C30.6916 15.9478 34.7293 11.6031 39.8835 8.43601L38.8365 6.73199C33.3667 10.0929 29.0844 14.7082 25.9957 20.557L27.7643 21.491ZM39.8715 8.44329C45.0798 5.3431 50.9803 3.784 57.6 3.784V1.784C50.6517 1.784 44.3922 3.4249 38.8485 6.72471L39.8715 8.44329ZM57.6 3.784C64.2198 3.784 70.0862 5.34312 75.228 8.44058L76.26 6.72742C70.7778 3.42488 64.5482 1.784 57.6 1.784V3.784ZM75.225 8.43879C80.4407 11.6054 84.4743 15.9471 87.3356 21.4832L89.1124 20.5648C86.0857 14.7089 81.7993 10.0906 76.263 6.72921L75.225 8.43879ZM87.3397 21.491C90.2641 27.0287 91.736 33.2657 91.736 40.224H93.736C93.736 32.9743 92.1999 26.4113 89.1083 20.557L87.3397 21.491ZM91.736 40.224C91.736 46.6334 90.6053 52.314 88.3681 57.2856L90.1919 58.1064C92.5627 52.838 93.736 46.8706 93.736 40.224H91.736ZM88.3681 57.2856C86.1304 62.2583 82.9054 66.349 78.6886 69.5736L79.9035 71.1624C84.3906 67.731 87.8216 63.3737 90.1919 58.1064L88.3681 57.2856ZM80.042 69.7021L67.274 55.3981L65.782 56.7299L78.55 71.0339L80.042 69.7021ZM67.1492 56.8477C72.586 52.538 75.4 47.3725 75.4 41.376H73.4C73.4 46.6435 70.966 51.27 65.9068 55.2803L67.1492 56.8477ZM75.4 41.376C75.4 36.4016 73.7757 32.316 70.4759 29.2225L69.1081 30.6815C71.9523 33.348 73.4 36.8784 73.4 41.376H75.4ZM70.4836 29.2297C67.2488 26.1326 62.9153 24.632 57.6 24.632V26.632C62.5247 26.632 66.3192 28.0114 69.1004 30.6743L70.4836 29.2297ZM57.6 24.632C52.2838 24.632 47.9237 26.1328 44.6281 29.2225L45.9959 30.6815C48.8443 28.0112 52.6762 26.632 57.6 26.632V24.632ZM44.6204 29.2297C41.3876 32.3249 39.8 36.4083 39.8 41.376H41.8C41.8 36.8717 43.2204 33.3391 46.0036 30.6743L44.6204 29.2297ZM39.8 41.376C39.8 47.3725 42.614 52.538 48.0508 56.8477L49.2932 55.2803C44.234 51.27 41.8 46.6435 41.8 41.376H39.8ZM47.926 55.3981L35.158 69.7021L36.65 71.0339L49.418 56.7299L47.926 55.3981ZM36.5115 69.5736C32.2946 66.349 29.0696 62.2583 26.8319 57.2856L25.0081 58.1064C27.3784 63.3737 30.8094 67.731 35.2965 71.1624L36.5115 69.5736ZM26.8319 57.2856C24.5947 52.314 23.464 46.6334 23.464 40.224H21.464C21.464 46.8706 22.6373 52.838 25.0081 58.1064L26.8319 57.2856Z" fill="white" fill-opacity="0.5"/>
<path d="M23.04 89.544C23.04 83.72 24.192 78.472 26.496 73.8C28.864 69.192 32.096 65.576 36.192 62.952C40.352 60.328 45.056 59.016 50.304 59.016C55.552 59.016 60.224 60.328 64.32 62.952C68.48 65.576 71.712 69.192 74.016 73.8C76.32 78.472 77.472 83.72 77.472 89.544C77.472 95.432 76.32 100.68 74.016 105.288C71.712 109.96 68.48 113.576 64.32 116.136C60.224 118.76 55.552 120.072 50.304 120.072C45.056 120.072 40.352 118.76 36.192 116.136C32.096 113.576 28.864 109.96 26.496 105.288C24.192 100.68 23.04 95.432 23.04 89.544ZM39.936 89.544C39.936 92.04 40.832 94.088 42.624 95.688C44.48 97.288 47.04 98.088 50.304 98.088C53.568 98.088 56.096 97.288 57.888 95.688C59.68 94.088 60.576 92.04 60.576 89.544C60.576 87.048 59.68 85 57.888 83.4C56.096 81.8 53.568 81 50.304 81C47.04 81 44.48 81.8 42.624 83.4C40.832 85 39.936 87.048 39.936 89.544Z" fill="#080918"/>
<path d="M26.496 73.8L25.6066 73.3429L25.6028 73.3503L25.5991 73.3577L26.496 73.8ZM36.192 62.952L35.6585 62.1062L35.6526 62.11L36.192 62.952ZM64.32 62.952L63.7806 63.7941L63.7865 63.7978L64.32 62.952ZM74.016 73.8L74.9129 73.3577L74.9104 73.3528L74.016 73.8ZM74.016 105.288L73.1216 104.841L73.1191 104.846L74.016 105.288ZM64.32 116.136L63.7959 115.284L63.7882 115.289L63.7806 115.294L64.32 116.136ZM36.192 116.136L36.7255 115.29L36.722 115.288L36.192 116.136ZM26.496 105.288L25.6016 105.735L25.604 105.74L26.496 105.288ZM42.624 95.688L41.958 96.4339L41.9645 96.4397L41.9711 96.4454L42.624 95.688ZM42.624 83.4L41.9711 82.6426L41.9645 82.6483L41.958 82.6541L42.624 83.4ZM24.04 89.544C24.04 83.8551 25.1644 78.7612 27.3929 74.2423L25.5991 73.3577C23.2196 78.1828 22.04 83.5849 22.04 89.544H24.04ZM27.3854 74.2571C29.6782 69.7954 32.7937 66.3166 36.7314 63.794L35.6526 62.11C31.3983 64.8354 28.0498 68.5886 25.6066 73.3429L27.3854 74.2571ZM36.7255 63.7978C40.715 61.2814 45.2316 60.016 50.304 60.016V58.016C44.8804 58.016 39.989 59.3746 35.6585 62.1062L36.7255 63.7978ZM50.304 60.016C55.3765 60.016 59.8583 61.2813 63.7806 63.794L64.8594 62.11C60.5897 59.3747 55.7275 58.016 50.304 58.016V60.016ZM63.7865 63.7978C67.7846 66.3197 70.8952 69.7944 73.1216 74.2472L74.9104 73.3528C72.5288 68.5896 69.1754 64.8323 64.8535 62.1062L63.7865 63.7978ZM73.1191 74.2423C75.3476 78.7612 76.472 83.8551 76.472 89.544H78.472C78.472 83.5849 77.2924 78.1828 74.9129 73.3577L73.1191 74.2423ZM76.472 89.544C76.472 95.299 75.3468 100.39 73.1216 104.841L74.9104 105.735C77.2932 100.97 78.472 95.565 78.472 89.544H76.472ZM73.1191 104.846C70.8926 109.361 67.7848 112.83 63.7959 115.284L64.8441 116.988C69.1752 114.322 72.5314 110.559 74.9129 105.73L73.1191 104.846ZM63.7806 115.294C59.8583 117.807 55.3765 119.072 50.304 119.072V121.072C55.7275 121.072 60.5897 119.713 64.8594 116.978L63.7806 115.294ZM50.304 119.072C45.2316 119.072 40.715 117.807 36.7255 115.29L35.6585 116.982C39.989 119.713 44.8804 121.072 50.304 121.072V119.072ZM36.722 115.288C32.7934 112.833 29.6808 109.36 27.388 104.836L25.604 105.74C28.0472 110.56 31.3986 114.319 35.662 116.984L36.722 115.288ZM27.3904 104.841C25.1652 100.39 24.04 95.299 24.04 89.544H22.04C22.04 95.565 23.2188 100.97 25.6016 105.735L27.3904 104.841ZM38.936 89.544C38.936 92.3122 39.9443 94.636 41.958 96.4339L43.29 94.9421C41.7197 93.54 40.936 91.7678 40.936 89.544H38.936ZM41.9711 96.4454C44.0615 98.2475 46.8808 99.088 50.304 99.088V97.088C47.1992 97.088 44.8985 96.3285 43.2769 94.9306L41.9711 96.4454ZM50.304 99.088C53.7248 99.088 56.5218 98.2484 58.554 96.4339L57.222 94.9421C55.6702 96.3276 53.4112 97.088 50.304 97.088V99.088ZM58.554 96.4339C60.5677 94.636 61.576 92.3122 61.576 89.544H59.576C59.576 91.7678 58.7923 93.54 57.222 94.9421L58.554 96.4339ZM61.576 89.544C61.576 86.7758 60.5677 84.452 58.554 82.6541L57.222 84.1459C58.7923 85.548 59.576 87.3202 59.576 89.544H61.576ZM58.554 82.6541C56.5218 80.8396 53.7248 80 50.304 80V82C53.4112 82 55.6702 82.7604 57.222 84.1459L58.554 82.6541ZM50.304 80C46.8808 80 44.0615 80.8405 41.9711 82.6426L43.2769 84.1574C44.8985 82.7595 47.1992 82 50.304 82V80ZM41.958 82.6541C39.9443 84.452 38.936 86.7758 38.936 89.544H40.936C40.936 87.3202 41.7197 85.548 43.29 84.1459L41.958 82.6541Z" fill="white" fill-opacity="0.5"/>
<path d="M77.472 182.304C77.472 188.64 75.52 193.696 71.616 197.472C67.712 201.312 61.824 203.232 53.952 203.232H24V181.536H50.208C56.224 181.536 59.232 179.584 59.232 175.68C59.232 173.632 58.464 171.968 56.928 170.688C55.392 169.472 52.96 168.864 49.632 168.864H24V147.168H50.208C56.224 147.168 59.232 145.216 59.232 141.312C59.232 139.264 58.464 137.6 56.928 136.32C55.392 135.104 52.96 134.496 49.632 134.496H24V112.8H76.512V133.44H71.616C75.52 137.344 77.472 142.304 77.472 148.32C77.472 151.84 76.8 155.008 75.456 157.824C74.176 160.64 72.192 162.944 69.504 164.736C72.064 166.848 74.016 169.408 75.36 172.416C76.768 175.424 77.472 178.72 77.472 182.304Z" fill="#080918"/>
<path d="M71.616 197.472L70.9208 196.753L70.9148 196.759L71.616 197.472ZM24 203.232H23V204.232H24V203.232ZM24 181.536V180.536H23V181.536H24ZM56.928 170.688L57.5682 169.92L57.5585 169.912L57.5487 169.904L56.928 170.688ZM24 168.864H23V169.864H24V168.864ZM24 147.168V146.168H23V147.168H24ZM56.928 136.32L57.5682 135.552L57.5585 135.544L57.5487 135.536L56.928 136.32ZM24 134.496H23V135.496H24V134.496ZM24 112.8V111.8H23V112.8H24ZM76.512 112.8H77.512V111.8H76.512V112.8ZM76.512 133.44V134.44H77.512V133.44H76.512ZM71.616 133.44V132.44H69.2018L70.9089 134.147L71.616 133.44ZM75.456 157.824L74.5535 157.393L74.5495 157.402L74.5456 157.41L75.456 157.824ZM69.504 164.736L68.9493 163.904L67.8292 164.651L68.8676 165.507L69.504 164.736ZM75.36 172.416L74.447 172.824L74.4506 172.832L74.4543 172.84L75.36 172.416ZM76.472 182.304C76.472 188.418 74.5974 193.197 70.9208 196.753L72.3112 198.191C76.4426 194.195 78.472 188.862 78.472 182.304H76.472ZM70.9148 196.759C67.2663 200.348 61.6767 202.232 53.952 202.232V204.232C61.9713 204.232 68.1577 202.276 72.3172 198.185L70.9148 196.759ZM53.952 202.232H24V204.232H53.952V202.232ZM25 203.232V181.536H23V203.232H25ZM24 182.536H50.208V180.536H24V182.536ZM50.208 182.536C53.2922 182.536 55.7781 182.041 57.5204 180.911C59.3372 179.732 60.232 177.935 60.232 175.68H58.232C58.232 177.329 57.6228 178.46 56.4316 179.233C55.1659 180.055 53.1398 180.536 50.208 180.536V182.536ZM60.232 175.68C60.232 173.344 59.3385 171.395 57.5682 169.92L56.2878 171.456C57.5895 172.541 58.232 173.92 58.232 175.68H60.232ZM57.5487 169.904C55.7496 168.48 53.0423 167.864 49.632 167.864V169.864C52.8777 169.864 55.0344 170.464 56.3073 171.472L57.5487 169.904ZM49.632 167.864H24V169.864H49.632V167.864ZM25 168.864V147.168H23V168.864H25ZM24 148.168H50.208V146.168H24V148.168ZM50.208 148.168C53.2922 148.168 55.7781 147.673 57.5204 146.543C59.3372 145.364 60.232 143.567 60.232 141.312H58.232C58.232 142.961 57.6228 144.092 56.4316 144.865C55.1659 145.687 53.1398 146.168 50.208 146.168V148.168ZM60.232 141.312C60.232 138.976 59.3385 137.027 57.5682 135.552L56.2878 137.088C57.5895 138.173 58.232 139.552 58.232 141.312H60.232ZM57.5487 135.536C55.7496 134.112 53.0423 133.496 49.632 133.496V135.496C52.8777 135.496 55.0344 136.096 56.3073 137.104L57.5487 135.536ZM49.632 133.496H24V135.496H49.632V133.496ZM25 134.496V112.8H23V134.496H25ZM24 113.8H76.512V111.8H24V113.8ZM75.512 112.8V133.44H77.512V112.8H75.512ZM76.512 132.44H71.616V134.44H76.512V132.44ZM70.9089 134.147C74.6076 137.846 76.472 142.543 76.472 148.32H78.472C78.472 142.065 76.4324 136.842 72.3231 132.733L70.9089 134.147ZM76.472 148.32C76.472 151.71 75.8255 154.728 74.5535 157.393L76.3585 158.255C77.7745 155.288 78.472 151.97 78.472 148.32H76.472ZM74.5456 157.41C73.3464 160.049 71.4893 162.211 68.9493 163.904L70.0587 165.568C72.8947 163.677 75.0056 161.231 76.3664 158.238L74.5456 157.41ZM68.8676 165.507C71.3095 167.522 73.1664 169.958 74.447 172.824L76.273 172.008C74.8656 168.858 72.8185 166.174 70.1404 163.965L68.8676 165.507ZM74.4543 172.84C75.7954 175.705 76.472 178.855 76.472 182.304H78.472C78.472 178.585 77.7406 175.143 76.2657 171.992L74.4543 172.84Z" fill="white" fill-opacity="0.5"/>
<path d="M77.472 267.304C77.472 273.64 75.52 278.696 71.616 282.472C67.712 286.312 61.824 288.232 53.952 288.232H24V266.536H50.208C56.224 266.536 59.232 264.584 59.232 260.68C59.232 258.632 58.464 256.968 56.928 255.688C55.392 254.472 52.96 253.864 49.632 253.864H24V232.168H50.208C56.224 232.168 59.232 230.216 59.232 226.312C59.232 224.264 58.464 222.6 56.928 221.32C55.392 220.104 52.96 219.496 49.632 219.496H24V197.8H76.512V218.44H71.616C75.52 222.344 77.472 227.304 77.472 233.32C77.472 236.84 76.8 240.008 75.456 242.824C74.176 245.64 72.192 247.944 69.504 249.736C72.064 251.848 74.016 254.408 75.36 257.416C76.768 260.424 77.472 263.72 77.472 267.304Z" fill="#080918"/>
<path d="M71.616 282.472L70.9208 281.753L70.9148 281.759L71.616 282.472ZM24 288.232H23V289.232H24V288.232ZM24 266.536V265.536H23V266.536H24ZM56.928 255.688L57.5682 254.92L57.5585 254.912L57.5487 254.904L56.928 255.688ZM24 253.864H23V254.864H24V253.864ZM24 232.168V231.168H23V232.168H24ZM56.928 221.32L57.5682 220.552L57.5585 220.544L57.5487 220.536L56.928 221.32ZM24 219.496H23V220.496H24V219.496ZM24 197.8V196.8H23V197.8H24ZM76.512 197.8H77.512V196.8H76.512V197.8ZM76.512 218.44V219.44H77.512V218.44H76.512ZM71.616 218.44V217.44H69.2018L70.9089 219.147L71.616 218.44ZM75.456 242.824L74.5535 242.393L74.5495 242.402L74.5456 242.41L75.456 242.824ZM69.504 249.736L68.9493 248.904L67.8292 249.651L68.8676 250.507L69.504 249.736ZM75.36 257.416L74.447 257.824L74.4506 257.832L74.4543 257.84L75.36 257.416ZM76.472 267.304C76.472 273.418 74.5974 278.197 70.9208 281.753L72.3112 283.191C76.4426 279.195 78.472 273.862 78.472 267.304H76.472ZM70.9148 281.759C67.2663 285.348 61.6767 287.232 53.952 287.232V289.232C61.9713 289.232 68.1577 287.276 72.3172 283.185L70.9148 281.759ZM53.952 287.232H24V289.232H53.952V287.232ZM25 288.232V266.536H23V288.232H25ZM24 267.536H50.208V265.536H24V267.536ZM50.208 267.536C53.2922 267.536 55.7781 267.041 57.5204 265.911C59.3372 264.732 60.232 262.935 60.232 260.68H58.232C58.232 262.329 57.6228 263.46 56.4316 264.233C55.1659 265.055 53.1398 265.536 50.208 265.536V267.536ZM60.232 260.68C60.232 258.344 59.3385 256.395 57.5682 254.92L56.2878 256.456C57.5895 257.541 58.232 258.92 58.232 260.68H60.232ZM57.5487 254.904C55.7496 253.48 53.0423 252.864 49.632 252.864V254.864C52.8777 254.864 55.0344 255.464 56.3073 256.472L57.5487 254.904ZM49.632 252.864H24V254.864H49.632V252.864ZM25 253.864V232.168H23V253.864H25ZM24 233.168H50.208V231.168H24V233.168ZM50.208 233.168C53.2922 233.168 55.7781 232.673 57.5204 231.543C59.3372 230.364 60.232 228.567 60.232 226.312H58.232C58.232 227.961 57.6228 229.092 56.4316 229.865C55.1659 230.687 53.1398 231.168 50.208 231.168V233.168ZM60.232 226.312C60.232 223.976 59.3385 222.027 57.5682 220.552L56.2878 222.088C57.5895 223.173 58.232 224.552 58.232 226.312H60.232ZM57.5487 220.536C55.7496 219.112 53.0423 218.496 49.632 218.496V220.496C52.8777 220.496 55.0344 221.096 56.3073 222.104L57.5487 220.536ZM49.632 218.496H24V220.496H49.632V218.496ZM25 219.496V197.8H23V219.496H25ZM24 198.8H76.512V196.8H24V198.8ZM75.512 197.8V218.44H77.512V197.8H75.512ZM76.512 217.44H71.616V219.44H76.512V217.44ZM70.9089 219.147C74.6076 222.846 76.472 227.543 76.472 233.32H78.472C78.472 227.065 76.4324 221.842 72.3231 217.733L70.9089 219.147ZM76.472 233.32C76.472 236.71 75.8255 239.728 74.5535 242.393L76.3585 243.255C77.7745 240.288 78.472 236.97 78.472 233.32H76.472ZM74.5456 242.41C73.3464 245.049 71.4893 247.211 68.9493 248.904L70.0587 250.568C72.8947 248.677 75.0056 246.231 76.3664 243.238L74.5456 242.41ZM68.8676 250.507C71.3095 252.522 73.1664 254.958 74.447 257.824L76.273 257.008C74.8656 253.858 72.8185 251.174 70.1404 248.965L68.8676 250.507ZM74.4543 257.84C75.7954 260.705 76.472 263.855 76.472 267.304H78.472C78.472 263.585 77.7406 260.143 76.2657 256.992L74.4543 257.84Z" fill="white" fill-opacity="0.5"/>
<path d="M76.512 340.208H24V319.568H28.992C27.008 317.648 25.504 315.408 24.48 312.848C23.52 310.288 23.04 307.568 23.04 304.688C23.04 298.032 25.056 292.688 29.088 288.656C33.184 284.624 39.328 282.608 47.52 282.608H76.512V304.304H51.264C47.68 304.304 45.12 304.88 43.584 306.032C42.048 307.184 41.28 308.88 41.28 311.12C41.28 313.232 42.112 314.992 43.776 316.4C45.504 317.808 48.192 318.512 51.84 318.512H76.512V340.208Z" fill="#080918"/>
<path d="M76.512 340.208V341.208H77.512V340.208H76.512ZM24 340.208H23V341.208H24V340.208ZM24 319.568V318.568H23V319.568H24ZM28.992 319.568V320.568H31.4633L29.6874 318.849L28.992 319.568ZM24.48 312.848L23.5437 313.199L23.5475 313.209L23.5515 313.219L24.48 312.848ZM29.088 288.656L28.3865 287.943L28.3809 287.949L29.088 288.656ZM76.512 282.608H77.512V281.608H76.512V282.608ZM76.512 304.304V305.304H77.512V304.304H76.512ZM43.584 306.032L44.184 306.832L43.584 306.032ZM43.776 316.4L43.1301 317.163L43.1371 317.169L43.1443 317.175L43.776 316.4ZM76.512 318.512H77.512V317.512H76.512V318.512ZM76.512 339.208H24V341.208H76.512V339.208ZM25 340.208V319.568H23V340.208H25ZM24 320.568H28.992V318.568H24V320.568ZM29.6874 318.849C27.8046 317.027 26.3801 314.906 25.4085 312.477L23.5515 313.219C24.6279 315.91 26.2114 318.269 28.2966 320.287L29.6874 318.849ZM25.4163 312.497C24.5006 310.055 24.04 307.455 24.04 304.688H22.04C22.04 307.681 22.5394 310.521 23.5437 313.199L25.4163 312.497ZM24.04 304.688C24.04 298.249 25.982 293.176 29.7951 289.363L28.3809 287.949C24.13 292.2 22.04 297.815 22.04 304.688H24.04ZM29.7895 289.369C33.6313 285.587 39.4782 283.608 47.52 283.608V281.608C39.1778 281.608 32.7367 283.661 28.3865 287.943L29.7895 289.369ZM47.52 283.608H76.512V281.608H47.52V283.608ZM75.512 282.608V304.304H77.512V282.608H75.512ZM76.512 303.304H51.264V305.304H76.512V303.304ZM51.264 303.304C47.6258 303.304 44.7888 303.878 42.984 305.232L44.184 306.832C45.4512 305.882 47.7342 305.304 51.264 305.304V303.304ZM42.984 305.232C41.1521 306.606 40.28 308.625 40.28 311.12H42.28C42.28 309.135 42.9439 307.762 44.184 306.832L42.984 305.232ZM40.28 311.12C40.28 313.537 41.2498 315.572 43.1301 317.163L44.4219 315.637C42.9742 314.412 42.28 312.927 42.28 311.12H40.28ZM43.1443 317.175C45.1333 318.796 48.0976 319.512 51.84 319.512V317.512C48.2864 317.512 45.8747 316.82 44.4077 315.625L43.1443 317.175ZM51.84 319.512H76.512V317.512H51.84V319.512ZM75.512 318.512V340.208H77.512V318.512H75.512Z" fill="white" fill-opacity="0.5"/>
<path d="M77.472 372.28C77.472 378.744 75.52 383.928 71.616 387.832C67.712 391.8 61.824 393.784 53.952 393.784H24V372.088H50.208C56.224 372.088 59.232 369.944 59.232 365.656C59.232 363.224 58.368 361.24 56.64 359.704C54.976 358.232 52.32 357.496 48.672 357.496H24V335.8H76.512V356.44H71.328C73.376 358.488 74.912 360.856 75.936 363.544C76.96 366.232 77.472 369.144 77.472 372.28Z" fill="#080918"/>
<path d="M71.616 387.832L70.9089 387.125L70.9032 387.131L71.616 387.832ZM24 393.784H23V394.784H24V393.784ZM24 372.088V371.088H23V372.088H24ZM56.64 359.704L57.3044 358.957L57.3026 358.955L56.64 359.704ZM24 357.496H23V358.496H24V357.496ZM24 335.8V334.8H23V335.8H24ZM76.512 335.8H77.512V334.8H76.512V335.8ZM76.512 356.44V357.44H77.512V356.44H76.512ZM71.328 356.44V355.44H68.9138L70.6209 357.147L71.328 356.44ZM75.936 363.544L75.0015 363.9L75.936 363.544ZM76.472 372.28C76.472 378.528 74.5934 383.44 70.9089 387.125L72.3231 388.539C76.4466 384.416 78.472 378.96 78.472 372.28H76.472ZM70.9032 387.131C67.2536 390.84 61.6685 392.784 53.952 392.784V394.784C61.9795 394.784 68.1704 392.76 72.3288 388.533L70.9032 387.131ZM53.952 392.784H24V394.784H53.952V392.784ZM25 393.784V372.088H23V393.784H25ZM24 373.088H50.208V371.088H24V373.088ZM50.208 373.088C53.3045 373.088 55.8064 372.542 57.5564 371.294C59.3688 370.003 60.232 368.064 60.232 365.656H58.232C58.232 367.536 57.5912 368.813 56.3956 369.666C55.1376 370.562 53.1275 371.088 50.208 371.088V373.088ZM60.232 365.656C60.232 362.955 59.2581 360.693 57.3044 358.957L55.9756 360.451C57.4779 361.787 58.232 363.493 58.232 365.656H60.232ZM57.3026 358.955C55.3697 357.245 52.4175 356.496 48.672 356.496V358.496C52.2225 358.496 54.5823 359.219 55.9774 360.453L57.3026 358.955ZM48.672 356.496H24V358.496H48.672V356.496ZM25 357.496V335.8H23V357.496H25ZM24 336.8H76.512V334.8H24V336.8ZM75.512 335.8V356.44H77.512V335.8H75.512ZM76.512 355.44H71.328V357.44H76.512V355.44ZM70.6209 357.147C72.5699 359.096 74.0281 361.345 75.0015 363.9L76.8705 363.188C75.7959 360.367 74.1821 357.88 72.0351 355.733L70.6209 357.147ZM75.0015 363.9C75.9785 366.464 76.472 369.255 76.472 372.28H78.472C78.472 369.033 77.9416 366 76.8705 363.188L75.0015 363.9Z" fill="white" fill-opacity="0.5"/>
<path d="M25.824 444.488C23.968 441.224 23.04 436.776 23.04 431.144C23.04 423.784 24.8 418.12 28.32 414.152C31.904 410.184 37.248 408.2 44.352 408.2H57.792V401H73.632V408.2H88.32V429.896H73.632V440.648H57.792V429.896H44.544C42.944 429.896 41.696 430.312 40.8 431.144C39.904 431.976 39.456 433.064 39.456 434.408C39.456 436.264 39.936 437.896 40.896 439.304L25.824 444.488Z" fill="#080918"/>
<path d="M25.824 444.488L24.9547 444.982L25.3648 445.703L26.1492 445.434L25.824 444.488ZM28.32 414.152L27.5779 413.482L27.5719 413.488L28.32 414.152ZM57.792 408.2V409.2H58.792V408.2H57.792ZM57.792 401V400H56.792V401H57.792ZM73.632 401H74.632V400H73.632V401ZM73.632 408.2H72.632V409.2H73.632V408.2ZM88.32 408.2H89.32V407.2H88.32V408.2ZM88.32 429.896V430.896H89.32V429.896H88.32ZM73.632 429.896V428.896H72.632V429.896H73.632ZM73.632 440.648V441.648H74.632V440.648H73.632ZM57.792 440.648H56.792V441.648H57.792V440.648ZM57.792 429.896H58.792V428.896H57.792V429.896ZM40.8 431.144L40.1196 430.411L40.8 431.144ZM40.896 439.304L41.2213 440.25L42.4605 439.823L41.7222 438.741L40.896 439.304ZM26.6933 443.994C24.9554 440.937 24.04 436.683 24.04 431.144H22.04C22.04 436.869 22.9806 441.511 24.9547 444.982L26.6933 443.994ZM24.04 431.144C24.04 423.934 25.7639 418.54 29.0681 414.816L27.5719 413.488C23.8361 417.7 22.04 423.634 22.04 431.144H24.04ZM29.0621 414.822C32.3996 411.127 37.4331 409.2 44.352 409.2V407.2C37.0629 407.2 31.4084 409.241 27.5779 413.482L29.0621 414.822ZM44.352 409.2H57.792V407.2H44.352V409.2ZM58.792 408.2V401H56.792V408.2H58.792ZM57.792 402H73.632V400H57.792V402ZM72.632 401V408.2H74.632V401H72.632ZM73.632 409.2H88.32V407.2H73.632V409.2ZM87.32 408.2V429.896H89.32V408.2H87.32ZM88.32 428.896H73.632V430.896H88.32V428.896ZM72.632 429.896V440.648H74.632V429.896H72.632ZM73.632 439.648H57.792V441.648H73.632V439.648ZM58.792 440.648V429.896H56.792V440.648H58.792ZM57.792 428.896H44.544V430.896H57.792V428.896ZM44.544 428.896C42.7717 428.896 41.2519 429.36 40.1196 430.411L41.4805 431.877C42.1401 431.264 43.1163 430.896 44.544 430.896V428.896ZM40.1196 430.411C38.9983 431.452 38.456 432.817 38.456 434.408H40.456C40.456 433.311 40.8097 432.5 41.4805 431.877L40.1196 430.411ZM38.456 434.408C38.456 436.446 38.9864 438.278 40.0698 439.867L41.7222 438.741C40.8856 437.514 40.456 436.082 40.456 434.408H38.456ZM40.5708 438.358L25.4987 443.542L26.1492 445.434L41.2213 440.25L40.5708 438.358Z" fill="white" fill-opacity="0.5"/>
<path d="M76.512 494.264L22.944 472.664C16.096 469.912 11.296 466.488 8.544 462.392C5.792 458.296 4.416 453.272 4.416 447.32C4.416 444.376 4.864 441.4 5.76 438.392C6.592 435.448 7.712 433.112 9.12 431.384L24 438.584C23.168 439.672 22.496 440.888 21.984 442.232C21.472 443.64 21.216 444.984 21.216 446.264C21.216 448.632 21.92 450.424 23.328 451.64L76.512 429.56V451.832L48.384 462.68L76.512 473.72V494.264Z" fill="#080918"/>
<path d="M76.512 494.264L76.138 495.191L77.512 495.745V494.264H76.512ZM22.944 472.664L23.318 471.737L23.3169 471.736L22.944 472.664ZM8.544 462.392L7.71395 462.95L8.544 462.392ZM5.76 438.392L6.71848 438.678L6.72231 438.664L5.76 438.392ZM9.12 431.384L9.55556 430.484L8.84406 430.14L8.34476 430.752L9.12 431.384ZM24 438.584L24.7944 439.191L25.539 438.218L24.4356 437.684L24 438.584ZM21.984 442.232L21.0495 441.876L21.0468 441.883L21.0442 441.89L21.984 442.232ZM23.328 451.64L22.6744 452.397L23.1414 452.8L23.7114 452.564L23.328 451.64ZM76.512 429.56H77.512V428.062L76.1286 428.636L76.512 429.56ZM76.512 451.832L76.8718 452.765L77.512 452.518V451.832H76.512ZM48.384 462.68L48.0242 461.747L45.6261 462.672L48.0186 463.611L48.384 462.68ZM76.512 473.72H77.512V473.038L76.8774 472.789L76.512 473.72ZM76.886 493.337L23.318 471.737L22.57 473.591L76.138 495.191L76.886 493.337ZM23.3169 471.736C16.5681 469.024 11.9715 465.7 9.37405 461.834L7.71395 462.95C10.6205 467.276 15.6238 470.8 22.5711 473.592L23.3169 471.736ZM9.37405 461.834C6.75393 457.935 5.416 453.115 5.416 447.32H3.416C3.416 453.429 4.83007 458.657 7.71395 462.95L9.37405 461.834ZM5.416 447.32C5.416 444.479 5.84816 441.599 6.71838 438.677L4.80161 438.107C3.87984 441.201 3.416 444.273 3.416 447.32H5.416ZM6.72231 438.664C7.53014 435.805 8.59925 433.606 9.89523 432.016L8.34476 430.752C6.82475 432.618 5.65385 435.091 4.79769 438.12L6.72231 438.664ZM8.68444 432.284L23.5644 439.484L24.4356 437.684L9.55556 430.484L8.68444 432.284ZM23.2056 437.977C22.3122 439.145 21.5941 440.446 21.0495 441.876L22.9185 442.588C23.3979 441.33 24.0238 440.199 24.7944 439.191L23.2056 437.977ZM21.0442 441.89C20.499 443.389 20.216 444.849 20.216 446.264H22.216C22.216 445.119 22.445 443.891 22.9238 442.574L21.0442 441.89ZM20.216 446.264C20.216 448.837 20.9892 450.941 22.6744 452.397L23.9816 450.883C22.8508 449.907 22.216 448.427 22.216 446.264H20.216ZM23.7114 452.564L76.8954 430.484L76.1286 428.636L22.9446 450.716L23.7114 452.564ZM75.512 429.56V451.832H77.512V429.56H75.512ZM76.1522 450.899L48.0242 461.747L48.7438 463.613L76.8718 452.765L76.1522 450.899ZM48.0186 463.611L76.1466 474.651L76.8774 472.789L48.7494 461.749L48.0186 463.611ZM75.512 473.72V494.264H77.512V473.72H75.512Z" fill="white" fill-opacity="0.5"/>
<path d="M76.512 388.8V410.496H24V388.8H76.512ZM80.736 399.648C80.736 395.744 81.76 392.576 83.808 390.144C85.92 387.776 88.576 386.592 91.776 386.592C94.976 386.592 97.6 387.776 99.648 390.144C101.76 392.576 102.816 395.744 102.816 399.648C102.816 403.616 101.824 406.784 99.84 409.152C97.856 411.52 95.296 412.704 92.16 412.704C88.832 412.704 86.08 411.52 83.904 409.152C81.792 406.784 80.736 403.616 80.736 399.648Z" fill="white"/>
<path d="M76.512 388.8H77.512V387.8H76.512V388.8ZM76.512 410.496V411.496H77.512V410.496H76.512ZM24 410.496H23V411.496H24V410.496ZM24 388.8V387.8H23V388.8H24ZM83.808 390.144L83.0617 389.478L83.0522 389.489L83.0431 389.5L83.808 390.144ZM99.648 390.144L98.8916 390.798L98.893 390.8L99.648 390.144ZM99.84 409.152L99.0735 408.51H99.0735L99.84 409.152ZM83.904 409.152L83.1577 409.818L83.1626 409.823L83.1677 409.829L83.904 409.152ZM75.512 388.8V410.496H77.512V388.8H75.512ZM76.512 409.496H24V411.496H76.512V409.496ZM25 410.496V388.8H23V410.496H25ZM24 389.8H76.512V387.8H24V389.8ZM81.736 399.648C81.736 395.924 82.7091 393.001 84.5729 390.788L83.0431 389.5C80.8109 392.151 79.736 395.564 79.736 399.648H81.736ZM84.5543 390.81C86.4747 388.656 88.8583 387.592 91.776 387.592V385.592C88.2937 385.592 85.3653 386.896 83.0617 389.478L84.5543 390.81ZM91.776 387.592C94.693 387.592 97.0384 388.655 98.8916 390.798L100.404 389.49C98.1616 386.897 95.259 385.592 91.776 385.592V387.592ZM98.893 390.8C100.815 393.013 101.816 395.932 101.816 399.648H103.816C103.816 395.556 102.705 392.139 100.403 389.488L98.893 390.8ZM101.816 399.648C101.816 403.449 100.868 406.368 99.0735 408.51L100.607 409.794C102.78 407.2 103.816 403.783 103.816 399.648H101.816ZM99.0735 408.51C97.2828 410.647 95.0053 411.704 92.16 411.704V413.704C95.5867 413.704 98.4292 412.393 100.607 409.794L99.0735 408.51ZM92.16 411.704C89.1008 411.704 86.6196 410.629 84.6403 408.475L83.1677 409.829C85.5404 412.411 88.5632 413.704 92.16 413.704V411.704ZM84.6503 408.486C82.7397 406.344 81.736 403.434 81.736 399.648H79.736C79.736 403.798 80.8443 407.224 83.1577 409.818L84.6503 408.486Z" fill="white" fill-opacity="0.5"/>
</svg>
